# Blender 4.4.3
# www.blender.org
mtllib cylinder.mtl
o Cylinder
v 0.000000 -2.000000 -2.000000
v 0.000000 2.000000 -2.000000
v 0.216238 -2.000000 -1.988276
v 0.216238 2.000000 -1.988276
v 0.429940 -2.000000 -1.953242
v 0.429940 2.000000 -1.953242
v 0.638604 -2.000000 -1.895306
v 0.638604 2.000000 -1.895306
v 0.839778 -2.000000 -1.815150
v 0.839778 2.000000 -1.815150
v 1.031107 -2.000000 -1.713714
v 1.031107 2.000000 -1.713714
v 1.210347 -2.000000 -1.592186
v 1.210347 2.000000 -1.592186
v 1.375397 -2.000000 -1.451990
v 1.375397 2.000000 -1.451990
v 1.524323 -2.000000 -1.294772
v 1.524323 2.000000 -1.294772
v 1.655377 -2.000000 -1.122374
v 1.655377 2.000000 -1.122374
v 1.767023 -2.000000 -0.936816
v 1.767023 2.000000 -0.936816
v 1.857953 -2.000000 -0.740276
v 1.857953 2.000000 -0.740276
v 1.927099 -2.000000 -0.535056
v 1.927099 2.000000 -0.535056
v 1.973653 -2.000000 -0.323564
v 1.973653 2.000000 -0.323564
v 1.997065 -2.000000 -0.108278
v 1.997065 2.000000 -0.108278
v 1.997065 -2.000000 0.108278
v 1.997065 2.000000 0.108278
v 1.973653 -2.000000 0.323564
v 1.973653 2.000000 0.323564
v 1.927099 -2.000000 0.535056
v 1.927099 2.000000 0.535056
v 1.857953 -2.000000 0.740276
v 1.857953 2.000000 0.740276
v 1.767023 -2.000000 0.936816
v 1.767023 2.000000 0.936816
v 1.655377 -2.000000 1.122374
v 1.655377 2.000000 1.122374
v 1.524323 -2.000000 1.294772
v 1.524323 2.000000 1.294772
v 1.375397 -2.000000 1.451990
v 1.375397 2.000000 1.451990
v 1.210347 -2.000000 1.592186
v 1.210347 2.000000 1.592186
v 1.031107 -2.000000 1.713714
v 1.031107 2.000000 1.713714
v 0.839778 -2.000000 1.815150
v 0.839778 2.000000 1.815150
v 0.638604 -2.000000 1.895306
v 0.638604 2.000000 1.895306
v 0.429940 -2.000000 1.953242
v 0.429940 2.000000 1.953242
v 0.216238 -2.000000 1.988276
v 0.216238 2.000000 1.988276
v 0.000000 -2.000000 2.000000
v 0.000000 2.000000 2.000000
v -0.216238 -2.000000 1.988276
v -0.216238 2.000000 1.988276
v -0.429940 -2.000000 1.953242
v -0.429940 2.000000 1.953242
v -0.638604 -2.000000 1.895306
v -0.638604 2.000000 1.895306
v -0.839778 -2.000000 1.815150
v -0.839778 2.000000 1.815150
v -1.031107 -2.000000 1.713714
v -1.031107 2.000000 1.713714
v -1.210347 -2.000000 1.592186
v -1.210347 2.000000 1.592186
v -1.375397 -2.000000 1.451990
v -1.375397 2.000000 1.451990
v -1.524323 -2.000000 1.294772
v -1.524323 2.000000 1.294772
v -1.655377 -2.000000 1.122374
v -1.655377 2.000000 1.122374
v -1.767023 -2.000000 0.936816
v -1.767023 2.000000 0.936816
v -1.857953 -2.000000 0.740276
v -1.857953 2.000000 0.740276
v -1.927099 -2.000000 0.535056
v -1.927099 2.000000 0.535056
v -1.973653 -2.000000 0.323564
v -1.973653 2.000000 0.323564
v -1.997065 -2.000000 0.108278
v -1.997065 2.000000 0.108278
v -1.997065 -2.000000 -0.108278
v -1.997065 2.000000 -0.108278
v -1.973653 -2.000000 -0.323564
v -1.973653 2.000000 -0.323564
v -1.927099 -2.000000 -0.535056
v -1.927099 2.000000 -0.535056
v -1.857953 -2.000000 -0.740276
v -1.857953 2.000000 -0.740276
v -1.767023 -2.000000 -0.936816
v -1.767023 2.000000 -0.936816
v -1.655377 -2.000000 -1.122374
v -1.655377 2.000000 -1.122374
v -1.524323 -2.000000 -1.294772
v -1.524323 2.000000 -1.294772
v -1.375397 -2.000000 -1.451990
v -1.375397 2.000000 -1.451990
v -1.210347 -2.000000 -1.592186
v -1.210347 2.000000 -1.592186
v -1.031107 -2.000000 -1.713714
v -1.031107 2.000000 -1.713714
v -0.839778 -2.000000 -1.815150
v -0.839778 2.000000 -1.815150
v -0.638604 -2.000000 -1.895306
v -0.638604 2.000000 -1.895306
v -0.429940 -2.000000 -1.953242
v -0.429940 2.000000 -1.953242
v -0.216238 -2.000000 -1.988276
v -0.216238 2.000000 -1.988276
vn 0.0541 -0.0000 -0.9985
vn 0.1618 -0.0000 -0.9868
vn 0.2675 -0.0000 -0.9635
vn 0.3701 -0.0000 -0.9290
vn 0.4684 -0.0000 -0.8835
vn 0.5612 -0.0000 -0.8277
vn 0.6474 -0.0000 -0.7622
vn 0.7260 -0.0000 -0.6877
vn 0.7961 -0.0000 -0.6052
vn 0.8569 -0.0000 -0.5156
vn 0.9076 -0.0000 -0.4199
vn 0.9477 -0.0000 -0.3193
vn 0.9766 -0.0000 -0.2150
vn 0.9941 -0.0000 -0.1081
vn 1.0000 -0.0000 -0.0000
vn 0.9941 -0.0000 0.1081
vn 0.9766 -0.0000 0.2150
vn 0.9477 -0.0000 0.3193
vn 0.9076 -0.0000 0.4199
vn 0.8569 -0.0000 0.5156
vn 0.7961 -0.0000 0.6052
vn 0.7260 -0.0000 0.6877
vn 0.6474 -0.0000 0.7622
vn 0.5612 -0.0000 0.8277
vn 0.4684 -0.0000 0.8835
vn 0.3701 -0.0000 0.9290
vn 0.2675 -0.0000 0.9635
vn 0.1618 -0.0000 0.9868
vn 0.0541 -0.0000 0.9985
vn -0.0541 -0.0000 0.9985
vn -0.1618 -0.0000 0.9868
vn -0.2675 -0.0000 0.9635
vn -0.3701 -0.0000 0.9290
vn -0.4684 -0.0000 0.8835
vn -0.5612 -0.0000 0.8277
vn -0.6474 -0.0000 0.7622
vn -0.7260 -0.0000 0.6877
vn -0.7961 -0.0000 0.6052
vn -0.8569 -0.0000 0.5156
vn -0.9076 -0.0000 0.4199
vn -0.9477 -0.0000 0.3193
vn -0.9766 -0.0000 0.2150
vn -0.9941 -0.0000 0.1081
vn -1.0000 -0.0000 -0.0000
vn -0.9941 -0.0000 -0.1081
vn -0.9766 -0.0000 -0.2150
vn -0.9477 -0.0000 -0.3193
vn -0.9076 -0.0000 -0.4199
vn -0.8569 -0.0000 -0.5156
vn -0.7961 -0.0000 -0.6052
vn -0.7260 -0.0000 -0.6877
vn -0.6474 -0.0000 -0.7622
vn -0.5612 -0.0000 -0.8277
vn -0.4684 -0.0000 -0.8835
vn -0.3701 -0.0000 -0.9290
vn -0.2675 -0.0000 -0.9635
vn -0.0000 1.0000 -0.0000
vn -0.1618 -0.0000 -0.9868
vn -0.0541 -0.0000 -0.9985
vn -0.0000 -1.0000 -0.0000
vt 1.000000 1.000000
vt 0.982759 0.500000
vt 1.000000 0.500000
vt 0.982759 1.000000
vt 0.965517 0.500000
vt 0.965517 1.000000
vt 0.948276 0.500000
vt 0.948276 1.000000
vt 0.931035 0.500000
vt 0.931035 1.000000
vt 0.913793 0.500000
vt 0.913793 1.000000
vt 0.896552 0.500000
vt 0.896552 1.000000
vt 0.879310 0.500000
vt 0.879310 1.000000
vt 0.862069 0.500000
vt 0.862069 1.000000
vt 0.844828 0.500000
vt 0.844828 1.000000
vt 0.827586 0.500000
vt 0.827586 1.000000
vt 0.810345 0.500000
vt 0.810345 1.000000
vt 0.793104 0.500000
vt 0.793104 1.000000
vt 0.775862 0.500000
vt 0.775862 1.000000
vt 0.758621 0.500000
vt 0.758621 1.000000
vt 0.741380 0.500000
vt 0.741380 1.000000
vt 0.724138 0.500000
vt 0.724138 1.000000
vt 0.706897 0.500000
vt 0.706897 1.000000
vt 0.689656 0.500000
vt 0.689656 1.000000
vt 0.672414 0.500000
vt 0.672414 1.000000
vt 0.655173 0.500000
vt 0.655173 1.000000
vt 0.637931 0.500000
vt 0.637931 1.000000
vt 0.620690 0.500000
vt 0.620690 1.000000
vt 0.603449 0.500000
vt 0.603449 1.000000
vt 0.586207 0.500000
vt 0.586207 1.000000
vt 0.568966 0.500000
vt 0.568966 1.000000
vt 0.551725 0.500000
vt 0.551725 1.000000
vt 0.534483 0.500000
vt 0.534483 1.000000
vt 0.517242 0.500000
vt 0.517242 1.000000
vt 0.500001 0.500000
vt 0.500001 1.000000
vt 0.482759 0.500000
vt 0.482759 1.000000
vt 0.465518 0.500000
vt 0.465518 1.000000
vt 0.448276 0.500000
vt 0.448276 1.000000
vt 0.431035 0.500000
vt 0.431035 1.000000
vt 0.413794 0.500000
vt 0.413794 1.000000
vt 0.396552 0.500000
vt 0.396552 1.000000
vt 0.379311 0.500000
vt 0.379311 1.000000
vt 0.362069 0.500000
vt 0.362069 1.000000
vt 0.344828 0.500000
vt 0.344828 1.000000
vt 0.327587 0.500000
vt 0.327587 1.000000
vt 0.310345 0.500000
vt 0.310345 1.000000
vt 0.293104 0.500000
vt 0.293104 1.000000
vt 0.275863 0.500000
vt 0.275863 1.000000
vt 0.258621 0.500000
vt 0.258621 1.000000
vt 0.241380 0.500000
vt 0.241380 1.000000
vt 0.224138 0.500000
vt 0.224138 1.000000
vt 0.206897 0.500000
vt 0.206897 1.000000
vt 0.189656 0.500000
vt 0.189656 1.000000
vt 0.172414 0.500000
vt 0.172414 1.000000
vt 0.155173 0.500000
vt 0.155173 1.000000
vt 0.137932 0.500000
vt 0.137932 1.000000
vt 0.120690 0.500000
vt 0.120690 1.000000
vt 0.103449 0.500000
vt 0.103449 1.000000
vt 0.086207 0.500000
vt 0.086207 1.000000
vt 0.068966 0.500000
vt 0.068966 1.000000
vt 0.051725 0.500000
vt 0.051725 1.000000
vt 0.034483 0.500000
vt 0.027046 0.161167
vt 0.373733 0.044354
vt 0.432919 0.405373
vt 0.034483 1.000000
vt 0.017242 0.500000
vt 0.017242 1.000000
vt 0.000000 0.500000
vt 0.962043 0.137582
vt 0.604758 0.058938
vt 0.584952 0.424239
vt 0.301593 0.484389
vt 0.275949 0.488593
vt 0.250000 0.490000
vt 0.224051 0.488593
vt 0.198407 0.484389
vt 0.173368 0.477437
vt 0.104758 0.441062
vt 0.149227 0.467818
vt 0.126267 0.455646
vt 0.084952 0.424239
vt 0.067081 0.405373
vt 0.051355 0.384685
vt 0.037957 0.362418
vt 0.027046 0.338833
vt 0.018748 0.314207
vt 0.013162 0.288828
vt 0.010352 0.262993
vt 0.010352 0.237007
vt 0.013162 0.211172
vt 0.018748 0.185793
vt 0.037957 0.137582
vt 0.084952 0.075761
vt 0.051355 0.115315
vt 0.067081 0.094627
vt 0.104758 0.058938
vt 0.173368 0.022563
vt 0.126267 0.044354
vt 0.149227 0.032182
vt 0.198407 0.015611
vt 0.224051 0.011407
vt 0.250000 0.010000
vt 0.275949 0.011407
vt 0.301593 0.015611
vt 0.326632 0.022563
vt 0.350773 0.032182
vt 0.395242 0.058938
vt 0.448645 0.115315
vt 0.415048 0.075761
vt 0.432919 0.094627
vt 0.462043 0.137582
vt 0.486838 0.211172
vt 0.472954 0.161167
vt 0.481252 0.185793
vt 0.489648 0.237007
vt 0.481252 0.314207
vt 0.489648 0.262993
vt 0.486838 0.288828
vt 0.472954 0.338833
vt 0.462043 0.362418
vt 0.448645 0.384685
vt 0.415048 0.424239
vt 0.395242 0.441062
vt 0.373733 0.455646
vt 0.350773 0.467818
vt 0.326632 0.477437
vt 0.000000 1.000000
vt 0.724051 0.488593
vt 0.750000 0.490000
vt 0.775949 0.488593
vt 0.801593 0.484389
vt 0.826632 0.477437
vt 0.850773 0.467818
vt 0.873733 0.455646
vt 0.895242 0.441062
vt 0.915048 0.424239
vt 0.932919 0.405373
vt 0.948645 0.384685
vt 0.962043 0.362418
vt 0.972954 0.338833
vt 0.981252 0.314207
vt 0.989648 0.237007
vt 0.986838 0.288828
vt 0.989648 0.262993
vt 0.986838 0.211172
vt 0.981252 0.185793
vt 0.972954 0.161167
vt 0.948645 0.115315
vt 0.932919 0.094627
vt 0.915048 0.075761
vt 0.895242 0.058938
vt 0.873733 0.044354
vt 0.850773 0.032182
vt 0.826632 0.022563
vt 0.801593 0.015611
vt 0.775949 0.011407
vt 0.750000 0.010000
vt 0.724051 0.011407
vt 0.698407 0.015611
vt 0.673368 0.022563
vt 0.649227 0.032182
vt 0.626267 0.044354
vt 0.584952 0.075761
vt 0.567081 0.094627
vt 0.551355 0.115315
vt 0.537957 0.137582
vt 0.527046 0.161167
vt 0.518748 0.185793
vt 0.513162 0.211172
vt 0.510352 0.237007
vt 0.510352 0.262993
vt 0.513162 0.288828
vt 0.518748 0.314207
vt 0.527046 0.338833
vt 0.537957 0.362418
vt 0.551355 0.384685
vt 0.567081 0.405373
vt 0.604758 0.441062
vt 0.673368 0.477437
vt 0.626267 0.455646
vt 0.649227 0.467818
vt 0.698407 0.484389
s 1
f 2/1/1 3/2/1 1/3/1
f 4/4/2 5/5/2 3/2/2
f 6/6/3 7/7/3 5/5/3
f 8/8/4 9/9/4 7/7/4
f 10/10/5 11/11/5 9/9/5
f 12/12/6 13/13/6 11/11/6
f 14/14/7 15/15/7 13/13/7
f 16/16/8 17/17/8 15/15/8
f 18/18/9 19/19/9 17/17/9
f 20/20/10 21/21/10 19/19/10
f 22/22/11 23/23/11 21/21/11
f 24/24/12 25/25/12 23/23/12
f 26/26/13 27/27/13 25/25/13
f 28/28/14 29/29/14 27/27/14
f 30/30/15 31/31/15 29/29/15
f 32/32/16 33/33/16 31/31/16
f 34/34/17 35/35/17 33/33/17
f 36/36/18 37/37/18 35/35/18
f 38/38/19 39/39/19 37/37/19
f 40/40/20 41/41/20 39/39/20
f 42/42/21 43/43/21 41/41/21
f 44/44/22 45/45/22 43/43/22
f 46/46/23 47/47/23 45/45/23
f 48/48/24 49/49/24 47/47/24
f 50/50/25 51/51/25 49/49/25
f 52/52/26 53/53/26 51/51/26
f 54/54/27 55/55/27 53/53/27
f 56/56/28 57/57/28 55/55/28
f 58/58/29 59/59/29 57/57/29
f 60/60/30 61/61/30 59/59/30
f 62/62/31 63/63/31 61/61/31
f 64/64/32 65/65/32 63/63/32
f 66/66/33 67/67/33 65/65/33
f 68/68/34 69/69/34 67/67/34
f 70/70/35 71/71/35 69/69/35
f 72/72/36 73/73/36 71/71/36
f 74/74/37 75/75/37 73/73/37
f 76/76/38 77/77/38 75/75/38
f 78/78/39 79/79/39 77/77/39
f 80/80/40 81/81/40 79/79/40
f 82/82/41 83/83/41 81/81/41
f 84/84/42 85/85/42 83/83/42
f 86/86/43 87/87/43 85/85/43
f 88/88/44 89/89/44 87/87/44
f 90/90/45 91/91/45 89/89/45
f 92/92/46 93/93/46 91/91/46
f 94/94/47 95/95/47 93/93/47
f 96/96/48 97/97/48 95/95/48
f 98/98/49 99/99/49 97/97/49
f 100/100/50 101/101/50 99/99/50
f 102/102/51 103/103/51 101/101/51
f 104/104/52 105/105/52 103/103/52
f 106/106/53 107/107/53 105/105/53
f 108/108/54 109/109/54 107/107/54
f 110/110/55 111/111/55 109/109/55
f 112/112/56 113/113/56 111/111/56
f 82/114/57 50/115/57 18/116/57
f 114/117/58 115/118/58 113/113/58
f 116/119/59 1/120/59 115/118/59
f 39/121/60 71/122/60 103/123/60
f 2/1/1 4/4/1 3/2/1
f 4/4/2 6/6/2 5/5/2
f 6/6/3 8/8/3 7/7/3
f 8/8/4 10/10/4 9/9/4
f 10/10/5 12/12/5 11/11/5
f 12/12/6 14/14/6 13/13/6
f 14/14/7 16/16/7 15/15/7
f 16/16/8 18/18/8 17/17/8
f 18/18/9 20/20/9 19/19/9
f 20/20/10 22/22/10 21/21/10
f 22/22/11 24/24/11 23/23/11
f 24/24/12 26/26/12 25/25/12
f 26/26/13 28/28/13 27/27/13
f 28/28/14 30/30/14 29/29/14
f 30/30/15 32/32/15 31/31/15
f 32/32/16 34/34/16 33/33/16
f 34/34/17 36/36/17 35/35/17
f 36/36/18 38/38/18 37/37/18
f 38/38/19 40/40/19 39/39/19
f 40/40/20 42/42/20 41/41/20
f 42/42/21 44/44/21 43/43/21
f 44/44/22 46/46/22 45/45/22
f 46/46/23 48/48/23 47/47/23
f 48/48/24 50/50/24 49/49/24
f 50/50/25 52/52/25 51/51/25
f 52/52/26 54/54/26 53/53/26
f 54/54/27 56/56/27 55/55/27
f 56/56/28 58/58/28 57/57/28
f 58/58/29 60/60/29 59/59/29
f 60/60/30 62/62/30 61/61/30
f 62/62/31 64/64/31 63/63/31
f 64/64/32 66/66/32 65/65/32
f 66/66/33 68/68/33 67/67/33
f 68/68/34 70/70/34 69/69/34
f 70/70/35 72/72/35 71/71/35
f 72/72/36 74/74/36 73/73/36
f 74/74/37 76/76/37 75/75/37
f 76/76/38 78/78/38 77/77/38
f 78/78/39 80/80/39 79/79/39
f 80/80/40 82/82/40 81/81/40
f 82/82/41 84/84/41 83/83/41
f 84/84/42 86/86/42 85/85/42
f 86/86/43 88/88/43 87/87/43
f 88/88/44 90/90/44 89/89/44
f 90/90/45 92/92/45 91/91/45
f 92/92/46 94/94/46 93/93/46
f 94/94/47 96/96/47 95/95/47
f 96/96/48 98/98/48 97/97/48
f 98/98/49 100/100/49 99/99/49
f 100/100/50 102/102/50 101/101/50
f 102/102/51 104/104/51 103/103/51
f 104/104/52 106/106/52 105/105/52
f 106/106/53 108/108/53 107/107/53
f 108/108/54 110/110/54 109/109/54
f 110/110/55 112/112/55 111/111/55
f 112/112/56 114/117/56 113/113/56
f 6/124/57 4/125/57 2/126/57
f 2/126/57 116/127/57 6/124/57
f 116/127/57 114/128/57 6/124/57
f 114/128/57 112/129/57 106/130/57
f 112/129/57 110/131/57 106/130/57
f 110/131/57 108/132/57 106/130/57
f 106/130/57 104/133/57 102/134/57
f 102/134/57 100/135/57 98/136/57
f 98/136/57 96/137/57 94/138/57
f 94/138/57 92/139/57 90/140/57
f 90/140/57 88/141/57 86/142/57
f 86/142/57 84/143/57 90/140/57
f 84/143/57 82/114/57 90/140/57
f 82/114/57 80/144/57 74/145/57
f 80/144/57 78/146/57 74/145/57
f 78/146/57 76/147/57 74/145/57
f 74/145/57 72/148/57 66/149/57
f 72/148/57 70/150/57 66/149/57
f 70/150/57 68/151/57 66/149/57
f 66/149/57 64/152/57 62/153/57
f 62/153/57 60/154/57 58/155/57
f 58/155/57 56/156/57 54/157/57
f 54/157/57 52/158/57 50/115/57
f 50/115/57 48/159/57 42/160/57
f 48/159/57 46/161/57 42/160/57
f 46/161/57 44/162/57 42/160/57
f 42/160/57 40/163/57 34/164/57
f 40/163/57 38/165/57 34/164/57
f 38/165/57 36/166/57 34/164/57
f 34/164/57 32/167/57 26/168/57
f 32/167/57 30/169/57 26/168/57
f 30/169/57 28/170/57 26/168/57
f 26/168/57 24/171/57 22/172/57
f 22/172/57 20/173/57 18/116/57
f 18/116/57 16/174/57 14/175/57
f 14/175/57 12/176/57 10/177/57
f 10/177/57 8/178/57 6/124/57
f 106/130/57 102/134/57 98/136/57
f 98/136/57 94/138/57 82/114/57
f 94/138/57 90/140/57 82/114/57
f 66/149/57 62/153/57 50/115/57
f 62/153/57 58/155/57 50/115/57
f 58/155/57 54/157/57 50/115/57
f 26/168/57 22/172/57 18/116/57
f 18/116/57 14/175/57 10/177/57
f 10/177/57 6/124/57 18/116/57
f 6/124/57 114/128/57 18/116/57
f 114/128/57 106/130/57 98/136/57
f 82/114/57 74/145/57 66/149/57
f 50/115/57 42/160/57 34/164/57
f 34/164/57 26/168/57 50/115/57
f 26/168/57 18/116/57 50/115/57
f 114/128/57 98/136/57 82/114/57
f 82/114/57 66/149/57 50/115/57
f 18/116/57 114/128/57 82/114/57
f 114/117/58 116/119/58 115/118/58
f 116/119/59 2/179/59 1/120/59
f 115/180/60 1/181/60 3/182/60
f 3/182/60 5/183/60 7/184/60
f 7/184/60 9/185/60 11/186/60
f 11/186/60 13/187/60 7/184/60
f 13/187/60 15/188/60 7/184/60
f 15/188/60 17/189/60 19/190/60
f 19/190/60 21/191/60 23/192/60
f 23/192/60 25/193/60 31/194/60
f 25/193/60 27/195/60 31/194/60
f 27/195/60 29/196/60 31/194/60
f 31/194/60 33/197/60 35/198/60
f 35/198/60 37/199/60 39/121/60
f 39/121/60 41/200/60 43/201/60
f 43/201/60 45/202/60 47/203/60
f 47/203/60 49/204/60 51/205/60
f 51/205/60 53/206/60 47/203/60
f 53/206/60 55/207/60 47/203/60
f 55/207/60 57/208/60 59/209/60
f 59/209/60 61/210/60 55/207/60
f 61/210/60 63/211/60 55/207/60
f 63/211/60 65/212/60 71/122/60
f 65/212/60 67/213/60 71/122/60
f 67/213/60 69/214/60 71/122/60
f 71/122/60 73/215/60 75/216/60
f 75/216/60 77/217/60 79/218/60
f 79/218/60 81/219/60 83/220/60
f 83/220/60 85/221/60 87/222/60
f 87/222/60 89/223/60 91/224/60
f 91/224/60 93/225/60 87/222/60
f 93/225/60 95/226/60 87/222/60
f 95/226/60 97/227/60 103/123/60
f 97/227/60 99/228/60 103/123/60
f 99/228/60 101/229/60 103/123/60
f 103/123/60 105/230/60 111/231/60
f 105/230/60 107/232/60 111/231/60
f 107/232/60 109/233/60 111/231/60
f 111/231/60 113/234/60 115/180/60
f 115/180/60 3/182/60 7/184/60
f 15/188/60 19/190/60 7/184/60
f 19/190/60 23/192/60 7/184/60
f 31/194/60 35/198/60 39/121/60
f 39/121/60 43/201/60 55/207/60
f 43/201/60 47/203/60 55/207/60
f 71/122/60 75/216/60 79/218/60
f 79/218/60 83/220/60 87/222/60
f 111/231/60 115/180/60 103/123/60
f 115/180/60 7/184/60 103/123/60
f 23/192/60 31/194/60 39/121/60
f 55/207/60 63/211/60 71/122/60
f 71/122/60 79/218/60 103/123/60
f 79/218/60 87/222/60 103/123/60
f 87/222/60 95/226/60 103/123/60
f 7/184/60 23/192/60 39/121/60
f 39/121/60 55/207/60 71/122/60
f 103/123/60 7/184/60 39/121/60
