# Blender 4.4.3
# www.blender.org
mtllib even_plane.mtl
o Plane
v -0.250000 0.000000 0.250000
v 0.250000 0.000000 0.250000
v -0.250000 0.000000 -0.250000
v 0.250000 0.000000 -0.250000
v 0.000000 0.000000 0.250000
v 0.250000 0.000000 0.000000
v 0.000000 0.000000 -0.250000
v 0.125000 0.000000 -0.250000
v -0.250000 0.000000 0.000000
v 0.125000 0.000000 0.250000
v -0.250000 0.000000 0.156250
v 0.250000 0.000000 -0.125000
v -0.250000 0.000000 -0.125000
v -0.125000 0.000000 -0.250000
v 0.062500 0.000000 0.250000
v -0.117019 0.000000 -0.139618
v -0.086696 0.000000 0.140927
v -0.125000 0.000000 0.250000
v 0.002655 0.000000 -0.006449
v 0.250000 0.000000 0.125000
v -0.250000 0.000000 0.125000
v 0.250000 0.000000 -0.062500
v -0.250000 0.000000 -0.187500
v -0.062500 0.000000 -0.250000
v 0.161556 0.000000 -0.147373
v 0.060016 0.000000 -0.161917
v -0.250000 0.000000 0.031250
v -0.187500 0.000000 0.250000
v -0.119837 0.000000 -0.101498
v 0.250000 0.000000 0.187500
v -0.250000 0.000000 0.062500
v -0.250000 0.000000 0.187500
v -0.189926 0.000000 0.173346
v 0.187500 0.000000 0.250000
v 0.250000 0.000000 0.218750
v 0.250000 0.000000 -0.187500
v -0.033305 0.000000 -0.181558
v -0.187500 0.000000 -0.250000
v -0.218750 0.000000 0.250000
v 0.043684 0.000000 0.116611
v 0.035267 0.000000 -0.210011
v -0.062500 0.000000 0.250000
v 0.075139 0.000000 0.159704
v 0.250000 0.000000 0.062500
v -0.084620 0.000000 0.029423
v 0.062500 0.000000 -0.250000
v 0.010892 0.000000 0.101223
v -0.031250 0.000000 -0.250000
v 0.167962 0.000000 0.129766
v -0.250000 0.000000 -0.062500
v -0.250000 0.000000 -0.218750
v 0.250000 0.000000 -0.031250
v 0.171432 0.000000 0.023162
v -0.169531 0.000000 0.069337
v 0.087540 0.000000 -0.071804
v 0.209867 0.000000 0.109697
v 0.187500 0.000000 -0.250000
v -0.082431 0.000000 -0.074859
v 0.156250 0.000000 0.250000
v -0.033525 0.000000 0.165382
v 0.250000 0.000000 -0.156250
v -0.156250 0.000000 -0.250000
v 0.046654 0.000000 0.200713
v -0.177962 0.000000 0.125199
v -0.093750 0.000000 0.250000
v -0.215525 0.000000 0.052929
v 0.250000 0.000000 0.093750
v -0.066024 0.000000 0.097728
v 0.093750 0.000000 -0.250000
v 0.099726 0.000000 0.187363
v 0.214509 0.000000 0.154094
v -0.250000 0.000000 -0.093750
v -0.071702 0.000000 0.186455
v 0.216997 0.000000 0.077005
v 0.210065 0.000000 0.046425
v -0.135281 0.000000 0.110511
v -0.050991 0.000000 -0.114426
v -0.141885 0.000000 0.156218
v 0.218750 0.000000 -0.250000
v 0.215469 0.000000 0.014037
v -0.199627 0.000000 0.215934
v -0.197336 0.000000 -0.164494
v -0.122085 0.000000 0.065209
v -0.158960 0.000000 -0.031089
v -0.222531 0.000000 -0.184356
v 0.081244 0.000000 0.221071
v -0.153193 0.000000 -0.190839
v -0.118293 0.000000 -0.173731
v -0.192622 0.000000 -0.210272
v -0.192679 0.000000 -0.082624
v 0.206832 0.000000 -0.024569
v 0.151403 0.000000 -0.019198
v 0.134860 0.000000 -0.062372
v -0.184390 0.000000 -0.129168
v 0.097727 0.000000 -0.020494
v 0.168536 0.000000 0.208298
v -0.000886 0.000000 -0.114414
v 0.049099 0.000000 -0.036354
v -0.250000 0.000000 0.218750
v 0.218750 0.000000 0.250000
v 0.250000 0.000000 -0.218750
v -0.218750 0.000000 -0.250000
v -0.074549 0.000000 -0.162589
v -0.031250 0.000000 0.250000
v 0.250000 0.000000 0.031250
v 0.031250 0.000000 -0.250000
v 0.121061 0.000000 -0.210263
v -0.250000 0.000000 -0.031250
v -0.107264 0.000000 -0.038007
v -0.151931 0.000000 -0.224843
v 0.156250 0.000000 -0.250000
v 0.093750 0.000000 0.250000
v 0.250000 0.000000 -0.093750
v -0.250000 0.000000 -0.156250
v -0.093750 0.000000 -0.250000
v -0.059111 0.000000 -0.206011
v 0.170637 0.000000 -0.202233
v -0.156250 0.000000 0.250000
v -0.055816 0.000000 -0.022484
v 0.250000 0.000000 0.156250
v -0.250000 0.000000 0.093750
v -0.219511 0.000000 0.145129
v 0.213000 0.000000 -0.212149
v 0.010324 0.000000 0.173388
v 0.174874 0.000000 0.076156
v 0.115844 0.000000 0.138341
v 0.078100 0.000000 0.066487
v -0.100996 0.000000 0.099307
v -0.065520 0.000000 0.224440
v 0.039113 0.000000 -0.129021
v 0.018059 0.000000 0.225731
v 0.031250 0.000000 0.250000
v 0.207186 0.000000 -0.170501
v -0.225784 0.000000 -0.211275
v -0.008090 0.000000 -0.158631
v -0.033880 0.000000 -0.145724
v 0.210113 0.000000 -0.124167
v 0.079030 0.000000 -0.220698
v 0.167193 0.000000 -0.101126
v 0.206549 0.000000 -0.075529
v 0.139358 0.000000 0.099629
v 0.128005 0.000000 0.013017
v 0.106502 0.000000 0.095657
v 0.127907 0.000000 0.056660
v 0.043580 0.000000 -0.087677
v 0.038183 0.000000 0.064477
v 0.049769 0.000000 0.092849
v 0.142548 0.000000 0.170773
v -0.182556 0.000000 0.012672
v -0.219329 0.000000 -0.124785
v -0.102379 0.000000 0.216090
v 0.005745 0.000000 0.047205
v 0.050937 0.000000 0.018487
v -0.020162 0.000000 -0.219674
v 0.094356 0.000000 0.026764
v -0.152110 0.000000 -0.092170
v 0.080949 0.000000 -0.190241
v -0.135926 0.000000 -0.067872
v 0.009788 0.000000 -0.061205
v -0.033161 0.000000 -0.073554
v -0.154138 0.000000 -0.154585
v 0.000461 0.000000 -0.189586
v -0.153715 0.000000 -0.118279
v -0.148271 0.000000 0.205387
v -0.103315 0.000000 -0.211824
v 0.038653 0.000000 0.147381
v -0.087945 0.000000 0.069863
v -0.110134 0.000000 0.180876
v 0.122361 0.000000 -0.109748
v -0.098924 0.000000 -0.003871
v -0.211960 0.000000 0.100439
v -0.126390 0.000000 -0.012969
v 0.108199 0.000000 -0.156797
v -0.018023 0.000000 -0.040494
v 0.077286 0.000000 -0.119014
v -0.035866 0.000000 0.028328
v 0.174892 0.000000 -0.047973
v 0.021963 0.000000 -0.162069
v 0.075213 0.000000 0.117841
v 0.209072 0.000000 0.204457
v 0.180036 0.000000 0.171578
v -0.035036 0.000000 0.121037
v -0.028456 0.000000 0.077232
v -0.000609 0.000000 0.140980
v -0.222026 0.000000 0.003892
v -0.004930 0.000000 0.207600
v 0.170896 0.000000 -0.071678
v -0.059947 0.000000 0.060072
v -0.136771 0.000000 0.021260
v -0.039319 0.000000 0.205409
v -0.087780 0.000000 -0.119060
v -0.206789 0.000000 -0.035196
v 0.135544 0.000000 0.207476
v 0.140440 0.000000 -0.178096
v 0.114708 0.000000 0.225804
vn -0.0000 1.0000 -0.0000
vt 0.421875 0.906250
vt 0.343750 0.937500
vt 0.500000 0.812500
vt 0.250000 0.156250
vt 0.187500 0.187500
vt 0.156250 0.125000
vt 0.125000 0.125000
vt 0.000000 0.875000
vt 0.062500 0.906250
vt 0.000000 0.937500
vt 0.593750 0.437500
vt 0.500000 0.500000
vt 0.562500 0.375000
vt 0.437500 0.250000
vt 0.468750 0.125000
vt 0.531250 0.187500
vt 0.296875 0.671875
vt 0.093750 0.593750
vt 0.343750 0.625000
vt 0.875000 0.125000
vt 0.812500 0.312500
vt 0.781250 0.250000
vt 0.250000 0.375000
vt 0.187500 0.312500
vt 0.250000 0.312500
vt 0.125000 0.375000
vt 0.125000 0.250000
vt 0.625000 0.187500
vt 0.656250 0.234375
vt 0.625000 0.250000
vt 0.468750 0.375000
vt 1.000000 0.500000
vt 1.000000 0.562500
vt 0.875000 0.562500
vt 0.906250 0.375000
vt 0.906250 0.343750
vt 0.375000 0.375000
vt 0.281250 0.343750
vt 0.937500 0.937500
vt 0.937500 1.000000
vt 0.875000 1.000000
vt 0.750000 0.187500
vt 0.750000 0.500000
vt 0.937500 0.500000
vt 0.125000 0.062500
vt 0.062500 0.000000
vt 0.125000 0.000000
vt 0.687500 0.375000
vt 0.687500 0.468750
vt 0.781250 0.562500
vt 0.937500 0.718750
vt 0.875000 0.750000
vt 0.843750 0.687500
vt 1.000000 0.812500
vt 1.000000 0.875000
vt 0.937500 0.843750
vt 0.000000 0.125000
vt 0.000000 0.062500
vt 0.781250 0.843750
vt 0.687500 0.937500
vt 0.750000 0.812500
vt 0.437500 0.812500
vt 0.375000 0.875000
vt 0.312500 0.812500
vt 0.187500 0.000000
vt 0.937500 0.093750
vt 0.937500 0.000000
vt 1.000000 0.062500
vt 0.562500 1.000000
vt 0.500000 1.000000
vt 0.562500 0.937500
vt 0.750000 1.000000
vt 0.687500 1.000000
vt 1.000000 0.625000
vt 0.906250 0.656250
vt 0.062500 0.281250
vt 0.250000 0.250000
vt 0.312500 0.312500
vt 0.843750 0.593750
vt 0.859375 0.640625
vt 0.609375 0.578125
vt 0.593750 0.656250
vt 0.531250 0.593750
vt 0.562500 0.062500
vt 0.625000 0.125000
vt 0.656250 0.906250
vt 0.718750 0.531250
vt 0.750000 0.343750
vt 0.531250 0.218750
vt 0.562500 0.687500
vt 0.531250 0.781250
vt 0.531250 0.750000
vt 0.343750 0.343750
vt 0.812500 0.625000
vt 0.750000 0.000000
vt 0.718750 0.062500
vt 0.687500 0.000000
vt 0.656250 0.968750
vt 0.531250 0.718750
vt 0.062500 0.187500
vt 0.625000 0.625000
vt 0.000000 0.500000
vt 0.000000 0.437500
vt 0.093750 0.500000
vt 0.937500 0.250000
vt 0.937500 0.187500
vt 1.000000 0.250000
vt 0.093750 0.562500
vt 0.000000 0.562500
vt 0.562500 0.000000
vt 0.718750 0.281250
vt 0.687500 0.218750
vt 0.656250 0.312500
vt 0.531250 0.906250
vt 0.562500 0.875000
vt 0.250000 0.906250
vt 0.312500 0.125000
vt 0.187500 0.812500
vt 0.343750 0.781250
vt 1.000000 0.937500
vt 1.000000 1.000000
vt 0.625000 0.875000
vt 0.875000 0.000000
vt 0.062500 1.000000
vt 0.000000 1.000000
vt 0.218750 0.437500
vt 0.625000 1.000000
vt 0.750000 0.687500
vt 0.000000 0.375000
vt 0.062500 0.375000
vt 0.687500 0.562500
vt 1.000000 0.750000
vt 1.000000 0.125000
vt 1.000000 0.187500
vt 0.500000 0.625000
vt 0.593750 0.718750
vt 0.250000 0.000000
vt 1.000000 0.312500
vt 0.187500 1.000000
vt 0.187500 0.968750
vt 0.250000 1.000000
vt 0.312500 0.000000
vt 0.375000 0.000000
vt 0.375000 0.062500
vt 0.687500 0.171875
vt 0.812500 0.000000
vt 0.875000 0.062500
vt 1.000000 0.687500
vt 0.687500 0.125000
vt 0.343750 0.562500
vt 0.500000 0.687500
vt 0.437500 0.125000
vt 0.437500 0.000000
vt 0.875000 0.875000
vt 0.812500 1.000000
vt 0.156250 0.468750
vt 0.375000 1.000000
vt 0.312500 1.000000
vt 0.000000 0.250000
vt 1.000000 0.375000
vt 1.000000 0.437500
vt 0.625000 0.750000
vt 0.062500 0.843750
vt 0.093750 0.781250
vt 0.062500 0.875000
vt 0.125000 0.937500
vt 0.000000 0.625000
vt 0.000000 0.687500
vt 0.375000 0.281250
vt 0.500000 0.937500
vt 0.187500 0.500000
vt 0.500000 0.875000
vt 0.000000 0.187500
vt 0.000000 0.000000
vt 1.000000 0.000000
vt 0.781250 0.093750
vt 0.875000 0.093750
vt 0.656250 0.062500
vt 0.625000 0.000000
vt 0.000000 0.812500
vt 0.000000 0.750000
vt 0.437500 0.343750
vt 0.531250 0.656250
vt 0.500000 0.750000
vt 0.500000 0.781250
vt 0.500000 0.000000
vt 0.812500 0.125000
vt 0.281250 0.062500
vt 0.000000 0.312500
vt 0.359375 0.468750
vt 0.515625 0.609375
vt 0.281250 0.500000
vt 0.625000 0.375000
vt 0.437500 1.000000
vt 0.125000 1.000000
s 0
f 116/1/1 165/2/1 103/3/1
f 168/4/1 78/5/1 164/6/1
f 33/7/1 164/6/1 78/5/1
f 23/8/1 134/9/1 51/10/1
f 153/11/1 19/12/1 152/13/1
f 60/14/1 186/15/1 124/16/1
f 156/17/1 90/18/1 158/19/1
f 49/20/1 125/21/1 141/22/1
f 83/23/1 76/24/1 128/25/1
f 76/24/1 54/26/1 64/27/1
f 166/28/1 40/29/1 47/30/1
f 19/12/1 176/31/1 152/13/1
f 6/32/1 52/33/1 91/34/1
f 75/35/1 125/21/1 74/36/1
f 45/37/1 83/23/1 167/38/1
f 123/39/1 79/40/1 57/41/1
f 49/20/1 141/22/1 126/42/1
f 53/43/1 80/44/1 91/34/1
f 81/45/1 39/46/1 28/47/1
f 153/11/1 127/48/1 155/49/1
f 53/43/1 91/34/1 92/50/1
f 137/51/1 25/52/1 139/53/1
f 61/54/1 36/55/1 133/56/1
f 32/57/1 99/58/1 81/45/1
f 194/59/1 107/60/1 173/61/1
f 16/62/1 88/63/1 161/64/1
f 81/45/1 28/47/1 118/65/1
f 180/66/1 100/67/1 35/68/1
f 106/69/1 7/70/1 41/71/1
f 107/60/1 8/72/1 69/73/1
f 22/74/1 140/75/1 91/34/1
f 64/27/1 54/26/1 171/76/1
f 17/77/1 68/78/1 128/25/1
f 177/79/1 140/75/1 187/80/1
f 98/81/1 145/82/1 159/83/1
f 131/84/1 63/85/1 186/15/1
f 157/86/1 173/61/1 107/60/1
f 53/43/1 142/87/1 144/88/1
f 184/89/1 166/28/1 47/30/1
f 118/65/1 164/6/1 81/45/1
f 97/90/1 135/91/1 136/92/1
f 25/52/1 137/51/1 133/56/1
f 188/93/1 45/37/1 167/38/1
f 173/61/1 25/52/1 194/59/1
f 128/25/1 68/78/1 167/38/1
f 32/57/1 81/45/1 33/7/1
f 93/94/1 177/79/1 187/80/1
f 10/95/1 195/96/1 112/97/1
f 107/60/1 69/73/1 138/98/1
f 77/99/1 136/92/1 103/3/1
f 171/76/1 122/100/1 64/27/1
f 98/81/1 55/101/1 145/82/1
f 9/102/1 27/103/1 185/104/1
f 56/105/1 71/106/1 20/107/1
f 192/108/1 108/109/1 185/104/1
f 125/21/1 49/20/1 56/105/1
f 132/110/1 63/85/1 131/84/1
f 143/111/1 127/48/1 179/112/1
f 179/112/1 127/48/1 147/113/1
f 162/114/1 178/115/1 41/71/1
f 161/64/1 88/63/1 87/116/1
f 17/77/1 73/117/1 60/14/1
f 107/60/1 138/98/1 157/86/1
f 125/21/1 75/35/1 53/43/1
f 135/91/1 97/90/1 178/115/1
f 22/74/1 91/34/1 52/33/1
f 94/118/1 90/18/1 163/119/1
f 101/120/1 4/121/1 79/40/1
f 138/98/1 41/71/1 157/86/1
f 26/122/1 157/86/1 41/71/1
f 34/123/1 100/67/1 180/66/1
f 102/124/1 3/125/1 51/10/1
f 83/23/1 189/126/1 54/26/1
f 46/127/1 106/69/1 41/71/1
f 51/10/1 134/9/1 102/124/1
f 169/128/1 55/101/1 93/94/1
f 27/103/1 31/129/1 66/130/1
f 163/119/1 90/18/1 156/17/1
f 95/131/1 92/50/1 93/94/1
f 12/132/1 61/54/1 137/51/1
f 71/106/1 30/133/1 120/134/1
f 56/105/1 49/20/1 71/106/1
f 178/115/1 26/122/1 41/71/1
f 19/12/1 119/135/1 176/31/1
f 178/115/1 97/90/1 130/136/1
f 145/82/1 130/136/1 97/90/1
f 118/65/1 18/137/1 164/6/1
f 67/138/1 74/36/1 56/105/1
f 62/139/1 110/140/1 14/141/1
f 63/85/1 124/16/1 186/15/1
f 122/100/1 33/7/1 64/27/1
f 65/142/1 42/143/1 129/144/1
f 36/55/1 123/39/1 133/56/1
f 43/145/1 179/112/1 166/28/1
f 59/146/1 34/123/1 96/147/1
f 53/43/1 92/50/1 142/87/1
f 22/74/1 113/148/1 140/75/1
f 70/149/1 126/42/1 43/145/1
f 109/150/1 119/135/1 58/151/1
f 83/23/1 54/26/1 76/24/1
f 186/15/1 190/152/1 104/153/1
f 92/50/1 177/79/1 93/94/1
f 117/154/1 111/155/1 107/60/1
f 54/26/1 189/126/1 149/156/1
f 165/2/1 24/157/1 115/158/1
f 36/55/1 101/120/1 123/39/1
f 95/131/1 142/87/1 92/50/1
f 35/68/1 30/133/1 180/66/1
f 117/154/1 133/56/1 123/39/1
f 171/76/1 21/159/1 122/100/1
f 44/160/1 105/161/1 75/35/1
f 166/28/1 179/112/1 40/29/1
f 145/82/1 55/101/1 175/162/1
f 57/41/1 111/155/1 117/154/1
f 82/163/1 150/164/1 94/118/1
f 85/165/1 82/163/1 89/166/1
f 50/167/1 90/18/1 72/168/1
f 184/89/1 47/30/1 182/169/1
f 71/106/1 180/66/1 30/133/1
f 162/114/1 41/71/1 154/170/1
f 84/171/1 192/108/1 149/156/1
f 55/101/1 98/81/1 95/131/1
f 136/92/1 37/172/1 103/3/1
f 43/145/1 63/85/1 70/149/1
f 33/7/1 81/45/1 164/6/1
f 145/82/1 175/162/1 130/136/1
f 90/18/1 192/108/1 84/171/1
f 84/171/1 109/150/1 158/19/1
f 46/127/1 138/98/1 69/73/1
f 87/116/1 82/163/1 161/64/1
f 140/75/1 137/51/1 139/53/1
f 122/100/1 21/159/1 11/173/1
f 122/100/1 11/173/1 32/57/1
f 141/22/1 144/88/1 143/111/1
f 99/58/1 1/174/1 39/46/1
f 37/172/1 136/92/1 135/91/1
f 100/67/1 2/175/1 35/68/1
f 74/36/1 44/160/1 75/35/1
f 70/149/1 195/96/1 193/176/1
f 188/93/1 167/38/1 68/78/1
f 71/106/1 49/20/1 181/177/1
f 157/86/1 26/122/1 173/61/1
f 86/178/1 63/85/1 15/179/1
f 89/166/1 82/163/1 87/116/1
f 23/8/1 114/180/1 85/165/1
f 114/180/1 13/181/1 150/164/1
f 47/30/1 152/13/1 183/182/1
f 169/128/1 175/162/1 55/101/1
f 16/62/1 161/64/1 163/119/1
f 19/12/1 98/81/1 159/83/1
f 101/120/1 79/40/1 123/39/1
f 9/102/1 185/104/1 108/109/1
f 42/143/1 104/153/1 129/144/1
f 162/114/1 154/170/1 37/172/1
f 77/99/1 160/183/1 97/90/1
f 29/184/1 191/185/1 16/62/1
f 77/99/1 97/90/1 136/92/1
f 141/22/1 143/111/1 126/42/1
f 166/28/1 124/16/1 63/85/1
f 139/53/1 93/94/1 187/80/1
f 5/186/1 132/110/1 131/84/1
f 111/155/1 8/72/1 107/60/1
f 54/26/1 66/130/1 171/76/1
f 70/149/1 148/187/1 126/42/1
f 40/29/1 179/112/1 147/113/1
f 129/144/1 151/188/1 65/142/1
f 94/118/1 163/119/1 161/64/1
f 183/182/1 176/31/1 188/93/1
f 18/137/1 151/188/1 164/6/1
f 121/189/1 66/130/1 31/129/1
f 49/20/1 126/42/1 148/187/1
f 81/45/1 99/58/1 39/46/1
f 25/52/1 133/56/1 117/154/1
f 97/90/1 160/183/1 159/83/1
f 73/117/1 151/188/1 129/144/1
f 87/116/1 110/140/1 89/166/1
f 154/170/1 116/1/1 37/172/1
f 191/185/1 58/151/1 77/99/1
f 189/126/1 45/37/1 170/190/1
f 187/80/1 140/75/1 139/53/1
f 76/24/1 78/5/1 17/77/1
f 26/122/1 178/115/1 130/136/1
f 67/138/1 44/160/1 74/36/1
f 67/138/1 56/105/1 20/107/1
f 160/183/1 119/135/1 174/191/1
f 104/153/1 190/152/1 129/144/1
f 149/156/1 185/104/1 66/130/1
f 141/22/1 125/21/1 144/88/1
f 172/192/1 189/126/1 170/190/1
f 193/176/1 148/187/1 70/149/1
f 186/15/1 104/153/1 5/186/1
f 92/50/1 91/34/1 177/79/1
f 147/113/1 127/48/1 146/193/1
f 152/13/1 47/30/1 146/193/1
f 53/43/1 144/88/1 125/21/1
f 171/76/1 121/189/1 21/159/1
f 165/2/1 88/63/1 103/3/1
f 60/14/1 184/89/1 182/169/1
f 145/82/1 97/90/1 159/83/1
f 60/14/1 124/16/1 184/89/1
f 186/15/1 5/186/1 131/84/1
f 173/61/1 26/122/1 175/162/1
f 140/75/1 113/148/1 137/51/1
f 174/191/1 19/12/1 159/83/1
f 34/123/1 180/66/1 96/147/1
f 80/44/1 75/35/1 105/161/1
f 182/169/1 47/30/1 183/182/1
f 169/128/1 93/94/1 139/53/1
f 192/108/1 185/104/1 149/156/1
f 190/152/1 73/117/1 129/144/1
f 166/28/1 63/85/1 43/145/1
f 154/170/1 7/70/1 48/194/1
f 158/19/1 29/184/1 156/17/1
f 154/170/1 48/194/1 24/157/1
f 41/71/1 7/70/1 154/170/1
f 76/24/1 17/77/1 128/25/1
f 153/11/1 98/81/1 19/12/1
f 113/148/1 12/132/1 137/51/1
f 62/139/1 38/195/1 110/140/1
f 130/136/1 175/162/1 26/122/1
f 82/163/1 114/180/1 150/164/1
f 33/7/1 78/5/1 64/27/1
f 173/61/1 169/128/1 25/52/1
f 168/4/1 17/77/1 78/5/1
f 76/24/1 64/27/1 78/5/1
f 33/7/1 122/100/1 32/57/1
f 60/14/1 190/152/1 186/15/1
f 166/28/1 184/89/1 124/16/1
f 45/37/1 119/135/1 170/190/1
f 86/178/1 195/96/1 70/149/1
f 182/169/1 183/182/1 68/78/1
f 180/66/1 181/177/1 96/147/1
f 103/3/1 191/185/1 77/99/1
f 59/146/1 96/147/1 193/176/1
f 134/9/1 23/8/1 85/165/1
f 29/184/1 58/151/1 191/185/1
f 117/154/1 107/60/1 194/59/1
f 139/53/1 25/52/1 169/128/1
f 168/4/1 164/6/1 151/188/1
f 49/20/1 148/187/1 181/177/1
f 47/30/1 40/29/1 147/113/1
f 158/19/1 109/150/1 58/151/1
f 153/11/1 155/49/1 95/131/1
f 46/127/1 41/71/1 138/98/1
f 98/81/1 153/11/1 95/131/1
f 87/116/1 88/63/1 165/2/1
f 112/97/1 86/178/1 15/179/1
f 185/104/1 27/103/1 66/130/1
f 189/126/1 83/23/1 45/37/1
f 195/96/1 59/146/1 193/176/1
f 85/165/1 114/180/1 82/163/1
f 68/78/1 17/77/1 182/169/1
f 183/182/1 188/93/1 68/78/1
f 24/157/1 165/2/1 116/1/1
f 158/19/1 58/151/1 29/184/1
f 87/116/1 165/2/1 110/140/1
f 120/134/1 20/107/1 71/106/1
f 103/3/1 88/63/1 16/62/1
f 153/11/1 152/13/1 146/193/1
f 155/49/1 127/48/1 144/88/1
f 15/179/1 63/85/1 132/110/1
f 37/172/1 116/1/1 103/3/1
f 135/91/1 178/115/1 162/114/1
f 117/154/1 123/39/1 57/41/1
f 45/37/1 176/31/1 119/135/1
f 167/38/1 83/23/1 128/25/1
f 177/79/1 91/34/1 140/75/1
f 192/108/1 50/167/1 108/109/1
f 146/193/1 127/48/1 153/11/1
f 16/62/1 163/119/1 29/184/1
f 29/184/1 163/119/1 156/17/1
f 90/18/1 94/118/1 150/164/1
f 150/164/1 13/181/1 72/168/1
f 150/164/1 72/168/1 90/18/1
f 121/189/1 171/76/1 66/130/1
f 84/171/1 189/126/1 172/192/1
f 110/140/1 38/195/1 89/166/1
f 182/169/1 17/77/1 60/14/1
f 165/2/1 115/158/1 14/141/1
f 63/85/1 86/178/1 70/149/1
f 73/117/1 168/4/1 151/188/1
f 74/36/1 125/21/1 56/105/1
f 194/59/1 25/52/1 117/154/1
f 193/176/1 96/147/1 148/187/1
f 96/147/1 181/177/1 148/187/1
f 176/31/1 45/37/1 188/93/1
f 80/44/1 6/32/1 91/34/1
f 183/182/1 152/13/1 176/31/1
f 135/91/1 162/114/1 37/172/1
f 134/9/1 89/166/1 102/124/1
f 80/44/1 105/161/1 6/32/1
f 160/183/1 77/99/1 58/151/1
f 165/2/1 14/141/1 110/140/1
f 109/150/1 172/192/1 170/190/1
f 103/3/1 16/62/1 191/185/1
f 127/48/1 143/111/1 144/88/1
f 174/191/1 119/135/1 19/12/1
f 146/193/1 47/30/1 147/113/1
f 119/135/1 109/150/1 170/190/1
f 173/61/1 175/162/1 169/128/1
f 86/178/1 112/97/1 195/96/1
f 151/188/1 18/137/1 65/142/1
f 160/183/1 174/191/1 159/83/1
f 82/163/1 94/118/1 161/64/1
f 80/44/1 53/43/1 75/35/1
f 119/135/1 160/183/1 58/151/1
f 190/152/1 60/14/1 73/117/1
f 73/117/1 17/77/1 168/4/1
f 10/95/1 59/146/1 195/96/1
f 38/195/1 102/124/1 89/166/1
f 84/171/1 158/19/1 90/18/1
f 61/54/1 133/56/1 137/51/1
f 143/111/1 179/112/1 126/42/1
f 179/112/1 43/145/1 126/42/1
f 189/126/1 84/171/1 149/156/1
f 180/66/1 71/106/1 181/177/1
f 66/130/1 54/26/1 149/156/1
f 84/171/1 172/192/1 109/150/1
f 134/9/1 85/165/1 89/166/1
f 50/167/1 192/108/1 90/18/1
f 154/170/1 24/157/1 116/1/1
f 95/131/1 93/94/1 55/101/1
f 155/49/1 142/87/1 95/131/1
f 155/49/1 144/88/1 142/87/1
