# Blender 4.4.3
# www.blender.org
mtllib injector_piston.mtl
o injector_piston
v 0.000000 -2.250000 -1.000000
v 0.000000 2.250000 -1.000000
v 0.195090 -2.250000 -0.980785
v 0.195090 2.250000 -0.980785
v 0.382683 -2.250000 -0.923880
v 0.382683 2.250000 -0.923880
v 0.555570 -2.250000 -0.831470
v 0.555570 2.250000 -0.831470
v 0.707107 -2.250000 -0.707107
v 0.707107 2.250000 -0.707107
v 0.831470 -2.250000 -0.555570
v 0.831470 2.250000 -0.555570
v 0.923880 -2.250000 -0.382683
v 0.923880 2.250000 -0.382683
v 0.980785 -2.250000 -0.195090
v 0.980785 2.250000 -0.195090
v 1.000000 -2.250000 0.000000
v 1.000000 2.250000 0.000000
v 0.980785 -2.250000 0.195090
v 0.980785 2.250000 0.195090
v 0.923880 -2.250000 0.382683
v 0.923880 2.250000 0.382683
v 0.831470 -2.250000 0.555570
v 0.831470 2.250000 0.555570
v 0.707107 -2.250000 0.707107
v 0.707107 2.250000 0.707107
v 0.555570 -2.250000 0.831470
v 0.555570 2.250000 0.831470
v 0.382683 -2.250000 0.923880
v 0.382683 2.250000 0.923880
v 0.195090 -2.250000 0.980785
v 0.195090 2.250000 0.980785
v 0.000000 -2.250000 1.000000
v 0.000000 2.250000 1.000000
v -0.195090 -2.250000 0.980785
v -0.195090 2.250000 0.980785
v -0.382683 -2.250000 0.923880
v -0.382683 2.250000 0.923880
v -0.555570 -2.250000 0.831470
v -0.555570 2.250000 0.831470
v -0.707107 -2.250000 0.707107
v -0.707107 2.250000 0.707107
v -0.831470 -2.250000 0.555570
v -0.831470 2.250000 0.555570
v -0.923880 -2.250000 0.382683
v -0.923880 2.250000 0.382683
v -0.980785 -2.250000 0.195090
v -0.980785 2.250000 0.195090
v -1.000000 -2.250000 0.000000
v -1.000000 2.250000 0.000000
v -0.980785 -2.250000 -0.195090
v -0.980785 2.250000 -0.195090
v -0.923880 -2.250000 -0.382683
v -0.923880 2.250000 -0.382683
v -0.831470 -2.250000 -0.555570
v -0.831470 2.250000 -0.555570
v -0.707107 -2.250000 -0.707107
v -0.707107 2.250000 -0.707107
v -0.555570 -2.250000 -0.831470
v -0.555570 2.250000 -0.831470
v -0.382683 -2.250000 -0.923880
v -0.382683 2.250000 -0.923880
v -0.195090 -2.250000 -0.980785
v -0.195090 2.250000 -0.980785
v 0.000000 2.025000 -1.000000
v 0.195090 2.025000 -0.980785
v 0.382683 2.025000 -0.923880
v 0.555570 2.025000 -0.831470
v 0.707107 2.025000 -0.707107
v 0.831470 2.025000 -0.555570
v 0.923880 2.025000 -0.382683
v 0.980785 2.025000 -0.195090
v 1.000000 2.025000 0.000000
v 0.980785 2.025000 0.195090
v 0.923880 2.025000 0.382683
v 0.831470 2.025000 0.555570
v 0.707107 2.025000 0.707107
v 0.555570 2.025000 0.831470
v 0.382683 2.025000 0.923880
v 0.195090 2.025000 0.980785
v 0.000000 2.025000 1.000000
v -0.195090 2.025000 0.980785
v -0.382683 2.025000 0.923880
v -0.555570 2.025000 0.831470
v -0.707107 2.025000 0.707107
v -0.831470 2.025000 0.555570
v -0.923880 2.025000 0.382683
v -0.980785 2.025000 0.195090
v -1.000000 2.025000 0.000000
v -0.980785 2.025000 -0.195090
v -0.923880 2.025000 -0.382683
v -0.831470 2.025000 -0.555570
v -0.707107 2.025000 -0.707107
v -0.555570 2.025000 -0.831470
v -0.382683 2.025000 -0.923880
v -0.195090 2.025000 -0.980785
v 0.019509 2.025001 -0.098078
v 0.038268 2.025001 -0.092388
v 0.055557 2.025001 -0.083147
v 0.070711 2.025001 -0.070711
v 0.083147 2.025001 -0.055557
v 0.092388 2.025001 -0.038268
v 0.098079 2.025001 -0.019509
v 0.100000 2.025001 0.000000
v 0.098079 2.025001 0.019509
v 0.092388 2.025001 0.038268
v 0.083147 2.025001 0.055557
v 0.070711 2.025001 0.070711
v 0.055557 2.025001 0.083147
v 0.038268 2.025001 0.092388
v 0.019509 2.025001 0.098079
v 0.000000 2.025001 0.100000
v -0.019509 2.025001 0.098079
v -0.038268 2.025001 0.092388
v -0.055557 2.025001 0.083147
v -0.070711 2.025001 0.070711
v -0.083147 2.025001 0.055557
v -0.092388 2.025001 0.038268
v -0.098078 2.025001 0.019509
v -0.100000 2.025001 0.000000
v -0.098078 2.025001 -0.019509
v -0.092388 2.025001 -0.038268
v -0.083147 2.025001 -0.055557
v -0.070711 2.025001 -0.070711
v -0.055557 2.025001 -0.083147
v -0.038268 2.025001 -0.092388
v -0.019509 2.025001 -0.098078
v 0.000000 2.025001 -0.100000
v 0.186311 -2.036250 -0.936650
v 0.365463 -2.036250 -0.882305
v 0.530570 -2.036250 -0.794053
v 0.675287 -2.036250 -0.675287
v 0.794053 -2.036250 -0.530570
v 0.882305 -2.036250 -0.365463
v 0.936650 -2.036250 -0.186311
v 0.955000 -2.036250 0.000000
v 0.936650 -2.036250 0.186311
v 0.882305 -2.036250 0.365463
v 0.794053 -2.036250 0.530570
v 0.675287 -2.036250 0.675287
v 0.530570 -2.036250 0.794053
v 0.365463 -2.036250 0.882305
v 0.186311 -2.036250 0.936650
v 0.000000 -2.036250 0.955000
v -0.186311 -2.036250 0.936650
v -0.365463 -2.036250 0.882305
v -0.530570 -2.036250 0.794053
v -0.675287 -2.036250 0.675287
v -0.794053 -2.036250 0.530570
v -0.882305 -2.036250 0.365463
v -0.936650 -2.036250 0.186311
v -0.955000 -2.036250 0.000000
v -0.936650 -2.036250 -0.186311
v -0.882305 -2.036250 -0.365463
v -0.794053 -2.036250 -0.530570
v -0.675287 -2.036250 -0.675287
v -0.530570 -2.036250 -0.794053
v -0.365463 -2.036250 -0.882305
v -0.186311 -2.036250 -0.936650
v 0.000000 -2.036250 -0.955000
v -0.000000 -2.036248 -0.095500
v 0.018631 -2.036248 -0.093665
v 0.036546 -2.036248 -0.088230
v 0.053057 -2.036248 -0.079405
v 0.067529 -2.036248 -0.067529
v 0.079405 -2.036248 -0.053057
v 0.088230 -2.036248 -0.036546
v 0.093665 -2.036248 -0.018631
v 0.095500 -2.036248 -0.000000
v 0.093665 -2.036248 0.018631
v 0.088230 -2.036248 0.036546
v 0.079405 -2.036248 0.053057
v 0.067529 -2.036248 0.067529
v 0.053057 -2.036248 0.079405
v 0.036546 -2.036248 0.088230
v 0.018631 -2.036248 0.093665
v -0.000000 -2.036248 0.095500
v -0.018631 -2.036248 0.093665
v -0.036546 -2.036248 0.088230
v -0.053057 -2.036248 0.079405
v -0.067529 -2.036248 0.067529
v -0.079405 -2.036248 0.053057
v -0.088230 -2.036248 0.036546
v -0.093665 -2.036248 0.018631
v -0.095500 -2.036248 -0.000000
v -0.093665 -2.036248 -0.018631
v -0.088230 -2.036248 -0.036546
v -0.079405 -2.036248 -0.053057
v -0.067529 -2.036248 -0.067529
v -0.053057 -2.036248 -0.079405
v -0.036546 -2.036248 -0.088230
v -0.018631 -2.036248 -0.093665
vn 0.0980 -0.0000 -0.9952
vn 0.2903 -0.0000 -0.9569
vn 0.4714 -0.0000 -0.8819
vn 0.6344 -0.0000 -0.7730
vn 0.7730 -0.0000 -0.6344
vn 0.8819 -0.0000 -0.4714
vn 0.9569 -0.0000 -0.2903
vn 0.9952 -0.0000 -0.0980
vn 0.9952 -0.0000 0.0980
vn 0.9569 -0.0000 0.2903
vn 0.8819 -0.0000 0.4714
vn 0.7730 -0.0000 0.6344
vn 0.6344 -0.0000 0.7730
vn 0.4714 -0.0000 0.8819
vn 0.2903 -0.0000 0.9569
vn 0.0980 -0.0000 0.9952
vn -0.0980 -0.0000 0.9952
vn -0.2903 -0.0000 0.9569
vn -0.4714 -0.0000 0.8819
vn -0.6344 -0.0000 0.7730
vn -0.7730 -0.0000 0.6344
vn -0.8819 -0.0000 0.4714
vn -0.9569 -0.0000 0.2903
vn -0.9952 -0.0000 0.0980
vn -0.9952 -0.0000 -0.0980
vn -0.9569 -0.0000 -0.2903
vn -0.8819 -0.0000 -0.4714
vn -0.7730 -0.0000 -0.6344
vn -0.6344 -0.0000 -0.7730
vn -0.4714 -0.0000 -0.8819
vn -0.0000 1.0000 -0.0000
vn -0.2903 -0.0000 -0.9569
vn -0.0980 -0.0000 -0.9952
vn -0.0000 -1.0000 -0.0000
vn 0.0980 -0.0011 -0.9952
vn 0.2903 -0.0011 -0.9569
vn 0.4714 -0.0011 -0.8819
vn 0.6344 -0.0011 -0.7730
vn 0.7730 -0.0011 -0.6344
vn 0.8819 -0.0011 -0.4714
vn 0.9569 -0.0011 -0.2903
vn 0.9952 -0.0011 -0.0980
vn 0.9952 -0.0011 0.0980
vn 0.9569 -0.0011 0.2903
vn 0.8819 -0.0011 0.4714
vn 0.7730 -0.0011 0.6344
vn 0.6344 -0.0011 0.7730
vn 0.4714 -0.0011 0.8819
vn 0.2903 -0.0011 0.9569
vn 0.0980 -0.0011 0.9952
vn -0.0980 -0.0011 0.9952
vn -0.2903 -0.0011 0.9569
vn -0.4714 -0.0011 0.8819
vn -0.6344 -0.0011 0.7730
vn -0.7730 -0.0011 0.6344
vn -0.8819 -0.0011 0.4714
vn -0.9569 -0.0011 0.2903
vn -0.9952 -0.0011 0.0980
vn -0.9952 -0.0011 -0.0980
vn -0.9569 -0.0011 -0.2903
vn -0.8819 -0.0011 -0.4714
vn -0.7730 -0.0011 -0.6344
vn -0.6344 -0.0011 -0.7730
vn -0.4714 -0.0011 -0.8819
vn -0.2903 -0.0011 -0.9569
vn -0.0980 -0.0011 -0.9952
vn -0.0959 0.2051 -0.9740
vn -0.2841 0.2051 -0.9366
vn -0.4614 0.2051 -0.8632
vn -0.6209 0.2051 -0.7566
vn -0.7566 0.2051 -0.6209
vn -0.8632 0.2051 -0.4614
vn -0.9366 0.2051 -0.2841
vn -0.9740 0.2051 -0.0959
vn -0.9740 0.2051 0.0959
vn -0.9366 0.2051 0.2841
vn -0.8632 0.2051 0.4614
vn -0.7566 0.2051 0.6209
vn -0.6209 0.2051 0.7566
vn -0.4614 0.2051 0.8632
vn -0.2841 0.2051 0.9366
vn -0.0959 0.2051 0.9740
vn 0.0959 0.2051 0.9740
vn 0.2841 0.2051 0.9366
vn 0.4614 0.2051 0.8632
vn 0.6209 0.2051 0.7566
vn 0.7566 0.2051 0.6209
vn 0.8632 0.2051 0.4614
vn 0.9366 0.2051 0.2841
vn 0.9740 0.2051 0.0959
vn 0.9740 0.2051 -0.0959
vn 0.9366 0.2051 -0.2841
vn 0.8632 0.2051 -0.4614
vn 0.7566 0.2051 -0.6209
vn 0.6209 0.2051 -0.7566
vn 0.4614 0.2051 -0.8632
vn 0.2841 0.2051 -0.9366
vn 0.0959 0.2051 -0.9740
vt 1.000000 0.975000
vt 1.000000 1.000000
vt 0.968750 1.000000
vt 0.968750 0.975000
vt 0.937500 1.000000
vt 0.937500 0.975000
vt 0.906250 1.000000
vt 0.906250 0.975000
vt 0.875000 1.000000
vt 0.875000 0.975000
vt 0.843750 1.000000
vt 0.843750 0.975000
vt 0.812500 1.000000
vt 0.812500 0.975000
vt 0.781250 1.000000
vt 0.781250 0.975000
vt 0.750000 1.000000
vt 0.750000 0.975000
vt 0.718750 1.000000
vt 0.718750 0.975000
vt 0.687500 1.000000
vt 0.687500 0.975000
vt 0.656250 1.000000
vt 0.656250 0.975000
vt 0.625000 1.000000
vt 0.625000 0.975000
vt 0.593750 1.000000
vt 0.593750 0.975000
vt 0.562500 1.000000
vt 0.562500 0.975000
vt 0.531250 1.000000
vt 0.531250 0.975000
vt 0.500000 1.000000
vt 0.500000 0.975000
vt 0.468750 1.000000
vt 0.468750 0.975000
vt 0.437500 1.000000
vt 0.437500 0.975000
vt 0.406250 1.000000
vt 0.406250 0.975000
vt 0.375000 1.000000
vt 0.375000 0.975000
vt 0.343750 1.000000
vt 0.343750 0.975000
vt 0.312500 1.000000
vt 0.312500 0.975000
vt 0.281250 1.000000
vt 0.281250 0.975000
vt 0.250000 1.000000
vt 0.250000 0.975000
vt 0.218750 1.000000
vt 0.218750 0.975000
vt 0.187500 1.000000
vt 0.187500 0.975000
vt 0.156250 1.000000
vt 0.156250 0.975000
vt 0.125000 1.000000
vt 0.125000 0.975000
vt 0.093750 1.000000
vt 0.093750 0.975000
vt 0.062500 1.000000
vt 0.062500 0.975000
vt 0.296822 0.485388
vt 0.250000 0.490000
vt 0.203178 0.485388
vt 0.158156 0.471731
vt 0.116663 0.449553
vt 0.080294 0.419706
vt 0.050447 0.383337
vt 0.028269 0.341844
vt 0.014612 0.296822
vt 0.010000 0.250000
vt 0.014612 0.203178
vt 0.028269 0.158156
vt 0.050447 0.116663
vt 0.080294 0.080294
vt 0.116663 0.050447
vt 0.158156 0.028269
vt 0.203178 0.014612
vt 0.250000 0.010000
vt 0.296822 0.014612
vt 0.341844 0.028269
vt 0.383337 0.050447
vt 0.419706 0.080294
vt 0.449553 0.116663
vt 0.471731 0.158156
vt 0.485388 0.203178
vt 0.490000 0.250000
vt 0.485388 0.296822
vt 0.471731 0.341844
vt 0.449553 0.383337
vt 0.419706 0.419706
vt 0.383337 0.449553
vt 0.341844 0.471731
vt 0.031250 1.000000
vt 0.031250 0.975000
vt 0.000000 1.000000
vt 0.000000 0.975000
vt 0.750000 0.490000
vt 0.796822 0.485388
vt 0.841844 0.471731
vt 0.883337 0.449553
vt 0.919706 0.419706
vt 0.949553 0.383337
vt 0.971731 0.341844
vt 0.985388 0.296822
vt 0.990000 0.250000
vt 0.985388 0.203178
vt 0.971731 0.158156
vt 0.949553 0.116663
vt 0.919706 0.080294
vt 0.883337 0.050447
vt 0.841844 0.028269
vt 0.796822 0.014612
vt 0.750000 0.010000
vt 0.703178 0.014612
vt 0.658156 0.028269
vt 0.616663 0.050447
vt 0.580294 0.080294
vt 0.550447 0.116663
vt 0.528269 0.158156
vt 0.514612 0.203178
vt 0.510000 0.250000
vt 0.514612 0.296822
vt 0.528269 0.341844
vt 0.550447 0.383337
vt 0.580294 0.419706
vt 0.616663 0.449553
vt 0.658156 0.471731
vt 0.703178 0.485388
vt 0.218750 0.975000
vt 0.468750 0.975000
vt 0.781250 0.975000
vt 0.968750 0.975000
vt 1.000000 0.523750
vt 0.968750 0.523750
vt 0.937500 0.523750
vt 0.906250 0.523750
vt 0.875000 0.523750
vt 0.843750 0.523750
vt 0.812500 0.523750
vt 0.781250 0.523750
vt 0.750000 0.523750
vt 0.718750 0.523750
vt 0.687500 0.523750
vt 0.656250 0.523750
vt 0.625000 0.523750
vt 0.593750 0.523750
vt 0.562500 0.523750
vt 0.531250 0.523750
vt 0.500000 0.523750
vt 0.468750 0.523750
vt 0.437500 0.523750
vt 0.406250 0.523750
vt 0.375000 0.523750
vt 0.343750 0.523750
vt 0.312500 0.523750
vt 0.281250 0.523750
vt 0.250000 0.523750
vt 0.218750 0.523750
vt 0.187500 0.523750
vt 0.156250 0.523750
vt 0.125000 0.523750
vt 0.093750 0.523750
vt 0.062500 0.523750
vt 0.031250 0.523750
vt 0.000000 0.523750
vt 0.031250 0.500000
vt 0.000000 0.500000
vt 0.062500 0.500000
vt 0.093750 0.500000
vt 0.125000 0.500000
vt 0.156250 0.500000
vt 0.187500 0.500000
vt 0.218750 0.500000
vt 0.250000 0.500000
vt 0.281250 0.500000
vt 0.312500 0.500000
vt 0.343750 0.500000
vt 0.375000 0.500000
vt 0.406250 0.500000
vt 0.437500 0.500000
vt 0.437500 0.523750
vt 0.468750 0.500000
vt 0.500000 0.500000
vt 0.531250 0.500000
vt 0.562500 0.500000
vt 0.593750 0.500000
vt 0.593750 0.523750
vt 0.625000 0.500000
vt 0.656250 0.500000
vt 0.656250 0.523750
vt 0.687500 0.500000
vt 0.718750 0.500000
vt 0.750000 0.500000
vt 0.781250 0.500000
vt 0.812500 0.500000
vt 0.812500 0.523750
vt 0.843750 0.500000
vt 0.875000 0.500000
vt 0.906250 0.500000
vt 0.937500 0.500000
vt 0.937500 0.523750
vt 0.968750 0.500000
vt 0.968750 0.523750
vt 1.000000 0.500000
s 0
f 65/1/1 2/2/1 4/3/1 66/4/1
f 66/4/2 4/3/2 6/5/2 67/6/2
f 67/6/3 6/5/3 8/7/3 68/8/3
f 68/8/4 8/7/4 10/9/4 69/10/4
f 69/10/5 10/9/5 12/11/5 70/12/5
f 70/12/6 12/11/6 14/13/6 71/14/6
f 71/14/7 14/13/7 16/15/7 72/16/7
f 72/16/8 16/15/8 18/17/8 73/18/8
f 73/18/9 18/17/9 20/19/9 74/20/9
f 74/20/10 20/19/10 22/21/10 75/22/10
f 75/22/11 22/21/11 24/23/11 76/24/11
f 76/24/12 24/23/12 26/25/12 77/26/12
f 77/26/13 26/25/13 28/27/13 78/28/13
f 78/28/14 28/27/14 30/29/14 79/30/14
f 79/30/15 30/29/15 32/31/15 80/32/15
f 80/32/16 32/31/16 34/33/16 81/34/16
f 81/34/17 34/33/17 36/35/17 82/36/17
f 82/36/18 36/35/18 38/37/18 83/38/18
f 83/38/19 38/37/19 40/39/19 84/40/19
f 84/40/20 40/39/20 42/41/20 85/42/20
f 85/42/21 42/41/21 44/43/21 86/44/21
f 86/44/22 44/43/22 46/45/22 87/46/22
f 87/46/23 46/45/23 48/47/23 88/48/23
f 88/48/24 48/47/24 50/49/24 89/50/24
f 89/50/25 50/49/25 52/51/25 90/52/25
f 90/52/26 52/51/26 54/53/26 91/54/26
f 91/54/27 54/53/27 56/55/27 92/56/27
f 92/56/28 56/55/28 58/57/28 93/58/28
f 93/58/29 58/57/29 60/59/29 94/60/29
f 94/60/30 60/59/30 62/61/30 95/62/30
f 4/63/31 2/64/31 64/65/31 62/66/31 60/67/31 58/68/31 56/69/31 54/70/31 52/71/31 50/72/31 48/73/31 46/74/31 44/75/31 42/76/31 40/77/31 38/78/31 36/79/31 34/80/31 32/81/31 30/82/31 28/83/31 26/84/31 24/85/31 22/86/31 20/87/31 18/88/31 16/89/31 14/90/31 12/91/31 10/92/31 8/93/31 6/94/31
f 95/62/32 62/61/32 64/95/32 96/96/32
f 96/96/33 64/95/33 2/97/33 65/98/33
f 1/99/34 3/100/34 5/101/34 7/102/34 9/103/34 11/104/34 13/105/34 15/106/34 17/107/34 19/108/34 21/109/34 23/110/34 25/111/34 27/112/34 29/113/34 31/114/34 33/115/34 35/116/34 37/117/34 39/118/34 41/119/34 43/120/34 45/121/34 47/122/34 49/123/34 51/124/34 53/125/34 55/126/34 57/127/34 59/128/34 61/129/34 63/130/34
f 127/96/34 96/96/34 65/98/34 128/98/34
f 126/62/34 95/62/34 96/96/34 127/96/34
f 125/60/34 94/60/34 95/62/34 126/62/34
f 124/58/34 93/58/34 94/60/34 125/60/34
f 123/56/34 92/56/34 93/58/34 124/58/34
f 122/54/34 91/54/34 92/56/34 123/56/34
f 121/131/34 90/52/34 91/54/34 122/54/34
f 120/50/34 89/50/34 90/52/34 121/131/34
f 119/48/34 88/48/34 89/50/34 120/50/34
f 118/46/34 87/46/34 88/48/34 119/48/34
f 117/44/34 86/44/34 87/46/34 118/46/34
f 116/42/34 85/42/34 86/44/34 117/44/34
f 115/40/34 84/40/34 85/42/34 116/42/34
f 114/38/34 83/38/34 84/40/34 115/40/34
f 113/132/34 82/36/34 83/38/34 114/38/34
f 112/34/34 81/34/34 82/36/34 113/132/34
f 111/32/34 80/32/34 81/34/34 112/34/34
f 110/30/34 79/30/34 80/32/34 111/32/34
f 109/28/34 78/28/34 79/30/34 110/30/34
f 108/26/34 77/26/34 78/28/34 109/28/34
f 107/24/34 76/24/34 77/26/34 108/26/34
f 106/22/34 75/22/34 76/24/34 107/24/34
f 105/20/34 74/20/34 75/22/34 106/22/34
f 104/18/34 73/18/34 74/20/34 105/20/34
f 103/133/34 72/16/34 73/18/34 104/18/34
f 102/14/34 71/14/34 72/16/34 103/133/34
f 101/12/34 70/12/34 71/14/34 102/14/34
f 100/10/34 69/10/34 70/12/34 101/12/34
f 99/8/34 68/8/34 69/10/34 100/10/34
f 98/6/34 67/6/34 68/8/34 99/8/34
f 97/134/34 66/4/34 67/6/34 98/6/34
f 128/1/34 65/1/34 66/4/34 97/134/34
f 161/135/35 128/1/35 97/134/35 162/136/35
f 162/136/36 97/134/36 98/6/36 163/137/36
f 163/137/37 98/6/37 99/8/37 164/138/37
f 164/138/38 99/8/38 100/10/38 165/139/38
f 165/139/39 100/10/39 101/12/39 166/140/39
f 166/140/40 101/12/40 102/14/40 167/141/40
f 167/141/41 102/14/41 103/133/41 168/142/41
f 168/142/42 103/133/42 104/18/42 169/143/42
f 169/143/43 104/18/43 105/20/43 170/144/43
f 170/144/44 105/20/44 106/22/44 171/145/44
f 171/145/45 106/22/45 107/24/45 172/146/45
f 172/146/46 107/24/46 108/26/46 173/147/46
f 173/147/47 108/26/47 109/28/47 174/148/47
f 174/148/48 109/28/48 110/30/48 175/149/48
f 175/149/49 110/30/49 111/32/49 176/150/49
f 176/150/50 111/32/50 112/34/50 177/151/50
f 177/151/51 112/34/51 113/132/51 178/152/51
f 178/152/52 113/132/52 114/38/52 179/153/52
f 179/153/53 114/38/53 115/40/53 180/154/53
f 180/154/54 115/40/54 116/42/54 181/155/54
f 181/155/55 116/42/55 117/44/55 182/156/55
f 182/156/56 117/44/56 118/46/56 183/157/56
f 183/157/57 118/46/57 119/48/57 184/158/57
f 184/158/58 119/48/58 120/50/58 185/159/58
f 185/159/59 120/50/59 121/131/59 186/160/59
f 186/160/60 121/131/60 122/54/60 187/161/60
f 187/161/61 122/54/61 123/56/61 188/162/61
f 188/162/62 123/56/62 124/58/62 189/163/62
f 189/163/63 124/58/63 125/60/63 190/164/63
f 190/164/64 125/60/64 126/62/64 191/165/64
f 191/165/65 126/62/65 127/96/65 192/166/65
f 192/166/66 127/96/66 128/98/66 161/167/66
f 63/168/67 159/166/67 160/167/67 1/169/67
f 61/170/68 158/165/68 159/166/68 63/168/68
f 59/171/69 157/164/69 158/165/69 61/170/69
f 57/172/70 156/163/70 157/164/70 59/171/70
f 55/173/71 155/162/71 156/163/71 57/172/71
f 53/174/72 154/161/72 155/162/72 55/173/72
f 51/175/73 153/160/73 154/161/73 53/174/73
f 49/176/74 152/159/74 153/160/74 51/175/74
f 47/177/75 151/158/75 152/159/75 49/176/75
f 45/178/76 150/157/76 151/158/76 47/177/76
f 43/179/77 149/156/77 150/157/77 45/178/77
f 41/180/78 148/155/78 149/156/78 43/179/78
f 39/181/79 147/154/79 148/155/79 41/180/79
f 37/182/80 146/183/80 147/154/80 39/181/80
f 35/184/81 145/152/81 146/183/81 37/182/81
f 33/185/82 144/151/82 145/152/82 35/184/82
f 31/186/83 143/150/83 144/151/83 33/185/83
f 29/187/84 142/149/84 143/150/84 31/186/84
f 27/188/85 141/189/85 142/149/85 29/187/85
f 25/190/86 140/147/86 141/189/86 27/188/86
f 23/191/87 139/192/87 140/147/87 25/190/87
f 21/193/88 138/145/88 139/192/88 23/191/88
f 19/194/89 137/144/89 138/145/89 21/193/89
f 17/195/90 136/143/90 137/144/90 19/194/90
f 15/196/91 135/142/91 136/143/91 17/195/91
f 13/197/92 134/198/92 135/142/92 15/196/92
f 11/199/93 133/140/93 134/198/93 13/197/93
f 9/200/94 132/139/94 133/140/94 11/199/94
f 7/201/95 131/138/95 132/139/95 9/200/95
f 5/202/96 130/203/96 131/138/96 7/201/96
f 3/204/97 129/205/97 130/203/97 5/202/97
f 1/206/98 160/135/98 129/205/98 3/204/98
f 159/166/31 192/166/31 161/167/31 160/167/31
f 158/165/31 191/165/31 192/166/31 159/166/31
f 157/164/31 190/164/31 191/165/31 158/165/31
f 156/163/31 189/163/31 190/164/31 157/164/31
f 155/162/31 188/162/31 189/163/31 156/163/31
f 154/161/31 187/161/31 188/162/31 155/162/31
f 153/160/31 186/160/31 187/161/31 154/161/31
f 152/159/31 185/159/31 186/160/31 153/160/31
f 151/158/31 184/158/31 185/159/31 152/159/31
f 150/157/31 183/157/31 184/158/31 151/158/31
f 149/156/31 182/156/31 183/157/31 150/157/31
f 148/155/31 181/155/31 182/156/31 149/156/31
f 147/154/31 180/154/31 181/155/31 148/155/31
f 146/183/31 179/153/31 180/154/31 147/154/31
f 145/152/31 178/152/31 179/153/31 146/183/31
f 144/151/31 177/151/31 178/152/31 145/152/31
f 143/150/31 176/150/31 177/151/31 144/151/31
f 142/149/31 175/149/31 176/150/31 143/150/31
f 141/189/31 174/148/31 175/149/31 142/149/31
f 140/147/31 173/147/31 174/148/31 141/189/31
f 139/192/31 172/146/31 173/147/31 140/147/31
f 138/145/31 171/145/31 172/146/31 139/192/31
f 137/144/31 170/144/31 171/145/31 138/145/31
f 136/143/31 169/143/31 170/144/31 137/144/31
f 135/142/31 168/142/31 169/143/31 136/143/31
f 134/198/31 167/141/31 168/142/31 135/142/31
f 133/140/31 166/140/31 167/141/31 134/198/31
f 132/139/31 165/139/31 166/140/31 133/140/31
f 131/138/31 164/138/31 165/139/31 132/139/31
f 130/203/31 163/137/31 164/138/31 131/138/31
f 129/205/31 162/136/31 163/137/31 130/203/31
f 160/135/31 161/135/31 162/136/31 129/205/31
