# Blender 4.4.3
# www.blender.org
mtllib injector_piston.mtl
o injector_piston
v 0.000000 2.750000 -2.000000
v 0.000000 7.250000 -2.000000
v 0.390180 2.750000 -1.961570
v 0.390180 7.250000 -1.961570
v 0.765366 2.750000 -1.847760
v 0.765366 7.250000 -1.847760
v 1.111140 2.750000 -1.662940
v 1.111140 7.250000 -1.662940
v 1.414214 2.750000 -1.414214
v 1.414214 7.250000 -1.414214
v 1.662940 2.750000 -1.111140
v 1.662940 7.250000 -1.111140
v 1.847760 2.750000 -0.765366
v 1.847760 7.250000 -0.765366
v 1.961570 2.750000 -0.390180
v 1.961570 7.250000 -0.390180
v 2.000000 2.750000 0.000000
v 2.000000 7.250000 -0.000000
v 1.961570 2.750000 0.390180
v 1.961570 7.250000 0.390180
v 1.847760 2.750000 0.765366
v 1.847760 7.250000 0.765366
v 1.662940 2.750000 1.111140
v 1.662940 7.250000 1.111140
v 1.414214 2.750000 1.414214
v 1.414214 7.250000 1.414214
v 1.111140 2.750000 1.662940
v 1.111140 7.250000 1.662940
v 0.765366 2.750000 1.847760
v 0.765366 7.250000 1.847760
v 0.390180 2.750000 1.961570
v 0.390180 7.250000 1.961570
v 0.000000 2.750000 2.000000
v 0.000000 7.250000 2.000000
v -0.390180 2.750000 1.961570
v -0.390180 7.250000 1.961570
v -0.765366 2.750000 1.847760
v -0.765366 7.250000 1.847760
v -1.111140 2.750000 1.662940
v -1.111140 7.250000 1.662940
v -1.414214 2.750000 1.414214
v -1.414214 7.250000 1.414214
v -1.662940 2.750000 1.111140
v -1.662940 7.250000 1.111140
v -1.847760 2.750000 0.765366
v -1.847760 7.250000 0.765366
v -1.961570 2.750000 0.390180
v -1.961570 7.250000 0.390180
v -2.000000 2.750000 0.000000
v -2.000000 7.250000 -0.000000
v -1.961570 2.750000 -0.390180
v -1.961570 7.250000 -0.390180
v -1.847760 2.750000 -0.765366
v -1.847760 7.250000 -0.765366
v -1.662940 2.750000 -1.111140
v -1.662940 7.250000 -1.111140
v -1.414214 2.750000 -1.414214
v -1.414214 7.250000 -1.414214
v -1.111140 2.750000 -1.662940
v -1.111140 7.250000 -1.662940
v -0.765366 2.750000 -1.847760
v -0.765366 7.250000 -1.847760
v -0.390180 2.750000 -1.961570
v -0.390180 7.250000 -1.961570
v 0.000000 7.025000 -2.000000
v 0.390180 7.025000 -1.961570
v 0.765366 7.025000 -1.847760
v 1.111140 7.025000 -1.662940
v 1.414214 7.025000 -1.414214
v 1.662940 7.025000 -1.111140
v 1.847760 7.025000 -0.765366
v 1.961570 7.025000 -0.390180
v 2.000000 7.025000 -0.000000
v 1.961570 7.025000 0.390180
v 1.847760 7.025000 0.765366
v 1.662940 7.025000 1.111140
v 1.414214 7.025000 1.414214
v 1.111140 7.025001 1.662940
v 0.765366 7.025001 1.847760
v 0.390180 7.025001 1.961570
v 0.000000 7.025001 2.000000
v -0.390180 7.025001 1.961570
v -0.765366 7.025001 1.847760
v -1.111140 7.025001 1.662940
v -1.414214 7.025000 1.414214
v -1.662940 7.025000 1.111140
v -1.847760 7.025000 0.765366
v -1.961570 7.025000 0.390180
v -2.000000 7.025000 -0.000000
v -1.961570 7.025000 -0.390180
v -1.847760 7.025000 -0.765366
v -1.662940 7.025000 -1.111140
v -1.414214 7.025000 -1.414214
v -1.111140 7.025000 -1.662940
v -0.765366 7.025000 -1.847760
v -0.390180 7.025000 -1.961570
v 0.039018 7.025001 -0.196156
v 0.076536 7.025001 -0.184776
v 0.111114 7.025001 -0.166294
v 0.141422 7.025001 -0.141422
v 0.166294 7.025001 -0.111114
v 0.184776 7.025001 -0.076536
v 0.196158 7.025001 -0.039018
v 0.200000 7.025001 -0.000000
v 0.196158 7.025001 0.039018
v 0.184776 7.025001 0.076536
v 0.166294 7.025001 0.111114
v 0.141422 7.025001 0.141422
v 0.111114 7.025001 0.166294
v 0.076536 7.025001 0.184776
v 0.039018 7.025001 0.196158
v 0.000000 7.025001 0.200000
v -0.039018 7.025001 0.196158
v -0.076536 7.025001 0.184776
v -0.111114 7.025001 0.166294
v -0.141422 7.025001 0.141422
v -0.166294 7.025001 0.111114
v -0.184776 7.025001 0.076536
v -0.196156 7.025001 0.039018
v -0.200000 7.025001 -0.000000
v -0.196156 7.025001 -0.039018
v -0.184776 7.025001 -0.076536
v -0.166294 7.025001 -0.111114
v -0.141422 7.025001 -0.141422
v -0.111114 7.025001 -0.166294
v -0.076536 7.025001 -0.184776
v -0.039018 7.025001 -0.196156
v 0.000000 7.025001 -0.200000
v 0.372622 2.963750 -1.873300
v 0.730926 2.963750 -1.764610
v 1.061140 2.963750 -1.588106
v 1.350574 2.963750 -1.350574
v 1.588106 2.963750 -1.061140
v 1.764610 2.963750 -0.730926
v 1.873300 2.963750 -0.372622
v 1.910000 2.963750 0.000000
v 1.873300 2.963750 0.372622
v 1.764610 2.963750 0.730926
v 1.588106 2.963750 1.061140
v 1.350574 2.963750 1.350574
v 1.061140 2.963750 1.588106
v 0.730926 2.963750 1.764610
v 0.372622 2.963750 1.873300
v 0.000000 2.963750 1.910000
v -0.372622 2.963750 1.873300
v -0.730926 2.963750 1.764610
v -1.061140 2.963750 1.588106
v -1.350574 2.963750 1.350574
v -1.588106 2.963750 1.061140
v -1.764610 2.963750 0.730926
v -1.873300 2.963750 0.372622
v -1.910000 2.963750 0.000000
v -1.873300 2.963750 -0.372622
v -1.764610 2.963750 -0.730926
v -1.588106 2.963750 -1.061140
v -1.350574 2.963750 -1.350574
v -1.061140 2.963750 -1.588106
v -0.730926 2.963750 -1.764610
v -0.372622 2.963750 -1.873300
v 0.000000 2.963750 -1.910000
v 0.000000 2.963752 -0.191000
v 0.037262 2.963752 -0.187330
v 0.073092 2.963752 -0.176460
v 0.106114 2.963752 -0.158810
v 0.135058 2.963752 -0.135058
v 0.158810 2.963752 -0.106114
v 0.176460 2.963752 -0.073092
v 0.187330 2.963752 -0.037262
v 0.191000 2.963752 0.000000
v 0.187330 2.963752 0.037262
v 0.176460 2.963752 0.073092
v 0.158810 2.963752 0.106114
v 0.135058 2.963752 0.135058
v 0.106114 2.963752 0.158810
v 0.073092 2.963752 0.176460
v 0.037262 2.963752 0.187330
v 0.000000 2.963752 0.191000
v -0.037262 2.963752 0.187330
v -0.073092 2.963752 0.176460
v -0.106114 2.963752 0.158810
v -0.135058 2.963752 0.135058
v -0.158810 2.963752 0.106114
v -0.176460 2.963752 0.073092
v -0.187330 2.963752 0.037262
v -0.191000 2.963752 0.000000
v -0.187330 2.963752 -0.037262
v -0.176460 2.963752 -0.073092
v -0.158810 2.963752 -0.106114
v -0.135058 2.963752 -0.135058
v -0.106114 2.963752 -0.158810
v -0.073092 2.963752 -0.176460
v -0.037262 2.963752 -0.187330
vn 0.0980 -0.0000 -0.9952
vn 0.2903 -0.0000 -0.9569
vn 0.4714 -0.0000 -0.8819
vn 0.6344 -0.0000 -0.7730
vn 0.7730 -0.0000 -0.6344
vn 0.8819 -0.0000 -0.4714
vn 0.9569 -0.0000 -0.2903
vn 0.9952 -0.0000 -0.0980
vn 0.9952 -0.0000 0.0980
vn 0.9569 -0.0000 0.2903
vn 0.8819 -0.0000 0.4714
vn 0.7730 -0.0000 0.6344
vn 0.6344 -0.0000 0.7730
vn 0.4714 -0.0000 0.8819
vn 0.2903 -0.0000 0.9569
vn 0.0980 -0.0000 0.9952
vn -0.0980 -0.0000 0.9952
vn -0.2903 -0.0000 0.9569
vn -0.4714 -0.0000 0.8819
vn -0.6344 -0.0000 0.7730
vn -0.7730 -0.0000 0.6344
vn -0.8819 -0.0000 0.4714
vn -0.9569 -0.0000 0.2903
vn -0.9952 -0.0000 0.0980
vn -0.9952 -0.0000 -0.0980
vn -0.9569 -0.0000 -0.2903
vn -0.8819 -0.0000 -0.4714
vn -0.7730 -0.0000 -0.6344
vn -0.6344 -0.0000 -0.7730
vn -0.4714 -0.0000 -0.8819
vn -0.0000 1.0000 -0.0000
vn -0.2903 -0.0000 -0.9569
vn -0.0980 -0.0000 -0.9952
vn -0.0000 -1.0000 -0.0000
vn 0.0980 -0.0022 -0.9952
vn 0.2903 -0.0022 -0.9569
vn 0.4714 -0.0022 -0.8819
vn 0.6344 -0.0022 -0.7730
vn 0.7730 -0.0022 -0.6344
vn 0.8819 -0.0022 -0.4714
vn 0.9569 -0.0022 -0.2903
vn 0.9952 -0.0022 -0.0980
vn 0.9952 -0.0022 0.0980
vn 0.9569 -0.0022 0.2903
vn 0.8819 -0.0022 0.4714
vn 0.7730 -0.0022 0.6344
vn 0.6344 -0.0022 0.7730
vn 0.4714 -0.0022 0.8819
vn 0.2903 -0.0022 0.9569
vn 0.0980 -0.0022 0.9952
vn -0.0980 -0.0022 0.9952
vn -0.2903 -0.0022 0.9569
vn -0.4714 -0.0022 0.8819
vn -0.6344 -0.0022 0.7730
vn -0.7730 -0.0022 0.6344
vn -0.8819 -0.0022 0.4714
vn -0.9569 -0.0022 0.2903
vn -0.9952 -0.0022 0.0980
vn -0.9952 -0.0022 -0.0980
vn -0.9569 -0.0022 -0.2903
vn -0.8819 -0.0022 -0.4714
vn -0.7730 -0.0022 -0.6344
vn -0.6344 -0.0022 -0.7730
vn -0.4714 -0.0022 -0.8819
vn -0.2903 -0.0022 -0.9569
vn -0.0980 -0.0022 -0.9952
vn -0.0904 0.3865 -0.9179
vn -0.2677 0.3865 -0.8826
vn -0.4348 0.3865 -0.8134
vn -0.5851 0.3865 -0.7129
vn -0.7129 0.3865 -0.5851
vn -0.8134 0.3865 -0.4348
vn -0.8826 0.3865 -0.2677
vn -0.9179 0.3865 -0.0904
vn -0.9179 0.3865 0.0904
vn -0.8826 0.3865 0.2677
vn -0.8134 0.3865 0.4348
vn -0.7129 0.3865 0.5851
vn -0.5851 0.3865 0.7129
vn -0.4348 0.3865 0.8134
vn -0.2677 0.3865 0.8826
vn -0.0904 0.3865 0.9179
vn 0.0904 0.3865 0.9179
vn 0.2677 0.3865 0.8826
vn 0.4348 0.3865 0.8134
vn 0.5851 0.3865 0.7129
vn 0.7129 0.3865 0.5851
vn 0.8134 0.3865 0.4348
vn 0.8826 0.3865 0.2677
vn 0.9179 0.3865 0.0904
vn 0.9179 0.3865 -0.0904
vn 0.8826 0.3865 -0.2677
vn 0.8134 0.3865 -0.4348
vn 0.7129 0.3865 -0.5851
vn 0.5851 0.3865 -0.7129
vn 0.4348 0.3865 -0.8134
vn 0.2677 0.3865 -0.8826
vn 0.0904 0.3865 -0.9179
vt 1.000000 0.975000
vt 1.000000 1.000000
vt 0.968750 1.000000
vt 0.968750 0.975000
vt 0.937500 1.000000
vt 0.937500 0.975000
vt 0.906250 1.000000
vt 0.906250 0.975000
vt 0.875000 1.000000
vt 0.875000 0.975000
vt 0.843750 1.000000
vt 0.843750 0.975000
vt 0.812500 1.000000
vt 0.812500 0.975000
vt 0.781250 1.000000
vt 0.781250 0.975000
vt 0.750000 1.000000
vt 0.750000 0.975000
vt 0.718750 1.000000
vt 0.718750 0.975000
vt 0.687500 1.000000
vt 0.687500 0.975000
vt 0.656250 1.000000
vt 0.656250 0.975000
vt 0.625000 1.000000
vt 0.625000 0.975000
vt 0.593750 1.000000
vt 0.593750 0.975000
vt 0.562500 1.000000
vt 0.562500 0.975000
vt 0.531250 1.000000
vt 0.531250 0.975000
vt 0.500000 1.000000
vt 0.500000 0.975000
vt 0.468750 1.000000
vt 0.468750 0.975000
vt 0.437500 1.000000
vt 0.437500 0.975000
vt 0.406250 1.000000
vt 0.406250 0.975000
vt 0.375000 1.000000
vt 0.375000 0.975000
vt 0.343750 1.000000
vt 0.343750 0.975000
vt 0.312500 1.000000
vt 0.312500 0.975000
vt 0.281250 1.000000
vt 0.281250 0.975000
vt 0.250000 1.000000
vt 0.250000 0.975000
vt 0.218750 1.000000
vt 0.218750 0.975000
vt 0.187500 1.000000
vt 0.187500 0.975000
vt 0.156250 1.000000
vt 0.156250 0.975000
vt 0.125000 1.000000
vt 0.125000 0.975000
vt 0.093750 1.000000
vt 0.093750 0.975000
vt 0.062500 1.000000
vt 0.062500 0.975000
vt 0.296822 0.485388
vt 0.250000 0.490000
vt 0.203178 0.485388
vt 0.158156 0.471731
vt 0.116663 0.449553
vt 0.080294 0.419706
vt 0.050447 0.383337
vt 0.028269 0.341844
vt 0.014612 0.296822
vt 0.010000 0.250000
vt 0.014612 0.203178
vt 0.028269 0.158156
vt 0.050447 0.116663
vt 0.080294 0.080294
vt 0.116663 0.050447
vt 0.158156 0.028269
vt 0.203178 0.014612
vt 0.250000 0.010000
vt 0.296822 0.014612
vt 0.341844 0.028269
vt 0.383337 0.050447
vt 0.419706 0.080294
vt 0.449553 0.116663
vt 0.471731 0.158156
vt 0.485388 0.203178
vt 0.490000 0.250000
vt 0.485388 0.296822
vt 0.471731 0.341844
vt 0.449553 0.383337
vt 0.419706 0.419706
vt 0.383337 0.449553
vt 0.341844 0.471731
vt 0.031250 1.000000
vt 0.031250 0.975000
vt 0.000000 1.000000
vt 0.000000 0.975000
vt 0.750000 0.490000
vt 0.796822 0.485388
vt 0.841844 0.471731
vt 0.883337 0.449553
vt 0.919706 0.419706
vt 0.949553 0.383337
vt 0.971731 0.341844
vt 0.985388 0.296822
vt 0.990000 0.250000
vt 0.985388 0.203178
vt 0.971731 0.158156
vt 0.949553 0.116663
vt 0.919706 0.080294
vt 0.883337 0.050447
vt 0.841844 0.028269
vt 0.796822 0.014612
vt 0.750000 0.010000
vt 0.703178 0.014612
vt 0.658156 0.028269
vt 0.616663 0.050447
vt 0.580294 0.080294
vt 0.550447 0.116663
vt 0.528269 0.158156
vt 0.514612 0.203178
vt 0.510000 0.250000
vt 0.514612 0.296822
vt 0.528269 0.341844
vt 0.550447 0.383337
vt 0.580294 0.419706
vt 0.616663 0.449553
vt 0.658156 0.471731
vt 0.703178 0.485388
vt 1.000000 0.523750
vt 0.968750 0.523750
vt 0.937500 0.523750
vt 0.906250 0.523750
vt 0.875000 0.523750
vt 0.843750 0.523750
vt 0.812500 0.523750
vt 0.781250 0.523750
vt 0.750000 0.523750
vt 0.718750 0.523750
vt 0.687500 0.523750
vt 0.656250 0.523750
vt 0.625000 0.523750
vt 0.593750 0.523750
vt 0.562500 0.523750
vt 0.531250 0.523750
vt 0.500000 0.523750
vt 0.468750 0.523750
vt 0.437500 0.523750
vt 0.406250 0.523750
vt 0.375000 0.523750
vt 0.343750 0.523750
vt 0.312500 0.523750
vt 0.281250 0.523750
vt 0.250000 0.523750
vt 0.218750 0.523750
vt 0.187500 0.523750
vt 0.156250 0.523750
vt 0.125000 0.523750
vt 0.093750 0.523750
vt 0.062500 0.523750
vt 0.031250 0.523750
vt 0.000000 0.523750
vt 0.031250 0.500000
vt 0.000000 0.500000
vt 0.062500 0.500000
vt 0.093750 0.500000
vt 0.125000 0.500000
vt 0.156250 0.500000
vt 0.187500 0.500000
vt 0.218750 0.500000
vt 0.250000 0.500000
vt 0.281250 0.500000
vt 0.312500 0.500000
vt 0.343750 0.500000
vt 0.375000 0.500000
vt 0.406250 0.500000
vt 0.437500 0.500000
vt 0.468750 0.500000
vt 0.500000 0.500000
vt 0.531250 0.500000
vt 0.562500 0.500000
vt 0.593750 0.500000
vt 0.625000 0.500000
vt 0.656250 0.500000
vt 0.687500 0.500000
vt 0.718750 0.500000
vt 0.750000 0.500000
vt 0.781250 0.500000
vt 0.812500 0.500000
vt 0.843750 0.500000
vt 0.875000 0.500000
vt 0.906250 0.500000
vt 0.937500 0.500000
vt 0.968750 0.500000
vt 1.000000 0.500000
s 1
f 65/1/1 2/2/1 4/3/1 66/4/1
f 66/4/2 4/3/2 6/5/2 67/6/2
f 67/6/3 6/5/3 8/7/3 68/8/3
f 68/8/4 8/7/4 10/9/4 69/10/4
f 69/10/5 10/9/5 12/11/5 70/12/5
f 70/12/6 12/11/6 14/13/6 71/14/6
f 71/14/7 14/13/7 16/15/7 72/16/7
f 72/16/8 16/15/8 18/17/8 73/18/8
f 73/18/9 18/17/9 20/19/9 74/20/9
f 74/20/10 20/19/10 22/21/10 75/22/10
f 75/22/11 22/21/11 24/23/11 76/24/11
f 76/24/12 24/23/12 26/25/12 77/26/12
f 77/26/13 26/25/13 28/27/13 78/28/13
f 78/28/14 28/27/14 30/29/14 79/30/14
f 79/30/15 30/29/15 32/31/15 80/32/15
f 80/32/16 32/31/16 34/33/16 81/34/16
f 81/34/17 34/33/17 36/35/17 82/36/17
f 82/36/18 36/35/18 38/37/18 83/38/18
f 83/38/19 38/37/19 40/39/19 84/40/19
f 84/40/20 40/39/20 42/41/20 85/42/20
f 85/42/21 42/41/21 44/43/21 86/44/21
f 86/44/22 44/43/22 46/45/22 87/46/22
f 87/46/23 46/45/23 48/47/23 88/48/23
f 88/48/24 48/47/24 50/49/24 89/50/24
f 89/50/25 50/49/25 52/51/25 90/52/25
f 90/52/26 52/51/26 54/53/26 91/54/26
f 91/54/27 54/53/27 56/55/27 92/56/27
f 92/56/28 56/55/28 58/57/28 93/58/28
f 93/58/29 58/57/29 60/59/29 94/60/29
f 94/60/30 60/59/30 62/61/30 95/62/30
f 4/63/31 2/64/31 64/65/31 62/66/31 60/67/31 58/68/31 56/69/31 54/70/31 52/71/31 50/72/31 48/73/31 46/74/31 44/75/31 42/76/31 40/77/31 38/78/31 36/79/31 34/80/31 32/81/31 30/82/31 28/83/31 26/84/31 24/85/31 22/86/31 20/87/31 18/88/31 16/89/31 14/90/31 12/91/31 10/92/31 8/93/31 6/94/31
f 95/62/32 62/61/32 64/95/32 96/96/32
f 96/96/33 64/95/33 2/97/33 65/98/33
f 1/99/34 3/100/34 5/101/34 7/102/34 9/103/34 11/104/34 13/105/34 15/106/34 17/107/34 19/108/34 21/109/34 23/110/34 25/111/34 27/112/34 29/113/34 31/114/34 33/115/34 35/116/34 37/117/34 39/118/34 41/119/34 43/120/34 45/121/34 47/122/34 49/123/34 51/124/34 53/125/34 55/126/34 57/127/34 59/128/34 61/129/34 63/130/34
f 127/96/34 96/96/34 65/98/34 128/98/34
f 126/62/34 95/62/34 96/96/34 127/96/34
f 125/60/34 94/60/34 95/62/34 126/62/34
f 124/58/34 93/58/34 94/60/34 125/60/34
f 123/56/34 92/56/34 93/58/34 124/58/34
f 122/54/34 91/54/34 92/56/34 123/56/34
f 121/52/34 90/52/34 91/54/34 122/54/34
f 120/50/34 89/50/34 90/52/34 121/52/34
f 119/48/34 88/48/34 89/50/34 120/50/34
f 118/46/34 87/46/34 88/48/34 119/48/34
f 117/44/34 86/44/34 87/46/34 118/46/34
f 116/42/34 85/42/34 86/44/34 117/44/34
f 115/40/34 84/40/34 85/42/34 116/42/34
f 114/38/34 83/38/34 84/40/34 115/40/34
f 113/36/34 82/36/34 83/38/34 114/38/34
f 112/34/34 81/34/34 82/36/34 113/36/34
f 111/32/34 80/32/34 81/34/34 112/34/34
f 110/30/34 79/30/34 80/32/34 111/32/34
f 109/28/34 78/28/34 79/30/34 110/30/34
f 108/26/34 77/26/34 78/28/34 109/28/34
f 107/24/34 76/24/34 77/26/34 108/26/34
f 106/22/34 75/22/34 76/24/34 107/24/34
f 105/20/34 74/20/34 75/22/34 106/22/34
f 104/18/34 73/18/34 74/20/34 105/20/34
f 103/16/34 72/16/34 73/18/34 104/18/34
f 102/14/34 71/14/34 72/16/34 103/16/34
f 101/12/34 70/12/34 71/14/34 102/14/34
f 100/10/34 69/10/34 70/12/34 101/12/34
f 99/8/34 68/8/34 69/10/34 100/10/34
f 98/6/34 67/6/34 68/8/34 99/8/34
f 97/4/34 66/4/34 67/6/34 98/6/34
f 128/1/34 65/1/34 66/4/34 97/4/34
f 161/131/35 128/1/35 97/4/35 162/132/35
f 162/132/36 97/4/36 98/6/36 163/133/36
f 163/133/37 98/6/37 99/8/37 164/134/37
f 164/134/38 99/8/38 100/10/38 165/135/38
f 165/135/39 100/10/39 101/12/39 166/136/39
f 166/136/40 101/12/40 102/14/40 167/137/40
f 167/137/41 102/14/41 103/16/41 168/138/41
f 168/138/42 103/16/42 104/18/42 169/139/42
f 169/139/43 104/18/43 105/20/43 170/140/43
f 170/140/44 105/20/44 106/22/44 171/141/44
f 171/141/45 106/22/45 107/24/45 172/142/45
f 172/142/46 107/24/46 108/26/46 173/143/46
f 173/143/47 108/26/47 109/28/47 174/144/47
f 174/144/48 109/28/48 110/30/48 175/145/48
f 175/145/49 110/30/49 111/32/49 176/146/49
f 176/146/50 111/32/50 112/34/50 177/147/50
f 177/147/51 112/34/51 113/36/51 178/148/51
f 178/148/52 113/36/52 114/38/52 179/149/52
f 179/149/53 114/38/53 115/40/53 180/150/53
f 180/150/54 115/40/54 116/42/54 181/151/54
f 181/151/55 116/42/55 117/44/55 182/152/55
f 182/152/56 117/44/56 118/46/56 183/153/56
f 183/153/57 118/46/57 119/48/57 184/154/57
f 184/154/58 119/48/58 120/50/58 185/155/58
f 185/155/59 120/50/59 121/52/59 186/156/59
f 186/156/60 121/52/60 122/54/60 187/157/60
f 187/157/61 122/54/61 123/56/61 188/158/61
f 188/158/62 123/56/62 124/58/62 189/159/62
f 189/159/63 124/58/63 125/60/63 190/160/63
f 190/160/64 125/60/64 126/62/64 191/161/64
f 191/161/65 126/62/65 127/96/65 192/162/65
f 192/162/66 127/96/66 128/98/66 161/163/66
f 63/164/67 159/162/67 160/163/67 1/165/67
f 61/166/68 158/161/68 159/162/68 63/164/68
f 59/167/69 157/160/69 158/161/69 61/166/69
f 57/168/70 156/159/70 157/160/70 59/167/70
f 55/169/71 155/158/71 156/159/71 57/168/71
f 53/170/72 154/157/72 155/158/72 55/169/72
f 51/171/73 153/156/73 154/157/73 53/170/73
f 49/172/74 152/155/74 153/156/74 51/171/74
f 47/173/75 151/154/75 152/155/75 49/172/75
f 45/174/76 150/153/76 151/154/76 47/173/76
f 43/175/77 149/152/77 150/153/77 45/174/77
f 41/176/78 148/151/78 149/152/78 43/175/78
f 39/177/79 147/150/79 148/151/79 41/176/79
f 37/178/80 146/149/80 147/150/80 39/177/80
f 35/179/81 145/148/81 146/149/81 37/178/81
f 33/180/82 144/147/82 145/148/82 35/179/82
f 31/181/83 143/146/83 144/147/83 33/180/83
f 29/182/84 142/145/84 143/146/84 31/181/84
f 27/183/85 141/144/85 142/145/85 29/182/85
f 25/184/86 140/143/86 141/144/86 27/183/86
f 23/185/87 139/142/87 140/143/87 25/184/87
f 21/186/88 138/141/88 139/142/88 23/185/88
f 19/187/89 137/140/89 138/141/89 21/186/89
f 17/188/90 136/139/90 137/140/90 19/187/90
f 15/189/91 135/138/91 136/139/91 17/188/91
f 13/190/92 134/137/92 135/138/92 15/189/92
f 11/191/93 133/136/93 134/137/93 13/190/93
f 9/192/94 132/135/94 133/136/94 11/191/94
f 7/193/95 131/134/95 132/135/95 9/192/95
f 5/194/96 130/133/96 131/134/96 7/193/96
f 3/195/97 129/132/97 130/133/97 5/194/97
f 1/196/98 160/131/98 129/132/98 3/195/98
f 159/162/31 192/162/31 161/163/31 160/163/31
f 158/161/31 191/161/31 192/162/31 159/162/31
f 157/160/31 190/160/31 191/161/31 158/161/31
f 156/159/31 189/159/31 190/160/31 157/160/31
f 155/158/31 188/158/31 189/159/31 156/159/31
f 154/157/31 187/157/31 188/158/31 155/158/31
f 153/156/31 186/156/31 187/157/31 154/157/31
f 152/155/31 185/155/31 186/156/31 153/156/31
f 151/154/31 184/154/31 185/155/31 152/155/31
f 150/153/31 183/153/31 184/154/31 151/154/31
f 149/152/31 182/152/31 183/153/31 150/153/31
f 148/151/31 181/151/31 182/152/31 149/152/31
f 147/150/31 180/150/31 181/151/31 148/151/31
f 146/149/31 179/149/31 180/150/31 147/150/31
f 145/148/31 178/148/31 179/149/31 146/149/31
f 144/147/31 177/147/31 178/148/31 145/148/31
f 143/146/31 176/146/31 177/147/31 144/147/31
f 142/145/31 175/145/31 176/146/31 143/146/31
f 141/144/31 174/144/31 175/145/31 142/145/31
f 140/143/31 173/143/31 174/144/31 141/144/31
f 139/142/31 172/142/31 173/143/31 140/143/31
f 138/141/31 171/141/31 172/142/31 139/142/31
f 137/140/31 170/140/31 171/141/31 138/141/31
f 136/139/31 169/139/31 170/140/31 137/140/31
f 135/138/31 168/138/31 169/139/31 136/139/31
f 134/137/31 167/137/31 168/138/31 135/138/31
f 133/136/31 166/136/31 167/137/31 134/137/31
f 132/135/31 165/135/31 166/136/31 133/136/31
f 131/134/31 164/134/31 165/135/31 132/135/31
f 130/133/31 163/133/31 164/134/31 131/134/31
f 129/132/31 162/132/31 163/133/31 130/133/31
f 160/131/31 161/131/31 162/132/31 129/132/31
